<svg xmlns="http://www.w3.org/2000/svg" viewBox="0 0 500 500"><g id="freepik--Floor--inject-179"><ellipse id="freepik--floor--inject-179" cx="250" cy="343.33" rx="231.53" ry="129.83" style="fill:#f0f0f0"></ellipse></g><g id="freepik--Shadows--inject-179"><path id="freepik--Shadow--inject-179" d="M41.31,358l63.5,36.66a2.25,2.25,0,0,0,2,0l167.62-96.77a2.27,2.27,0,0,1,2.06,0L382.44,359a2.33,2.33,0,0,0,2.06,0L448,322.35a.63.63,0,0,0,0-1.19l-171.46-99a2.25,2.25,0,0,0-2.05,0L41.31,356.78A.63.63,0,0,0,41.31,358Z" style="fill:#e0e0e0"></path><ellipse id="freepik--shadow--inject-179" cx="267.31" cy="378.81" rx="71.56" ry="41.31" style="fill:#e0e0e0"></ellipse></g><g id="freepik--Kitchen--inject-179"><g id="freepik--kitchen--inject-179"><path d="M388.53,341.46H378.28l1.64,10h0a1.87,1.87,0,0,0,1,1.24,5.49,5.49,0,0,0,5,0,1.89,1.89,0,0,0,1-1.24h0Z" style="fill:#455a64"></path><path d="M438.66,312.52H428.41l1.64,10h0a1.87,1.87,0,0,0,1,1.24,5.47,5.47,0,0,0,4.95,0,1.87,1.87,0,0,0,1-1.24h0Z" style="fill:#455a64"></path><path d="M100.65,377.11H110.9l-1.64,10h0a1.84,1.84,0,0,1-1,1.23,5.49,5.49,0,0,1-5,0,1.85,1.85,0,0,1-1-1.23h0Z" style="fill:#455a64"></path><path d="M50.52,348.17H60.77l-1.64,10h0a1.84,1.84,0,0,1-1,1.23,5.47,5.47,0,0,1-4.95,0,1.84,1.84,0,0,1-1-1.23h0Z" style="fill:#455a64"></path><polygon points="275.5 186.89 383.41 249.23 383.41 350.37 275.5 288.03 275.5 186.89" style="fill:#f5f5f5"></polygon><polygon points="47.99 251.45 47.99 352.59 105.83 385.99 105.83 284.85 47.99 251.45" style="fill:#f5f5f5"></polygon><polygon points="383.41 249.23 441.31 215.83 441.31 316.97 383.41 350.37 383.41 249.23" style="fill:#fafafa"></polygon><polygon points="105.83 385.99 275.5 288.03 275.5 186.89 105.83 284.85 105.83 385.99" style="fill:#fafafa"></polygon><polygon points="153.88 358.24 155.9 357.08 155.9 255.94 153.88 257.1 153.88 358.24" style="fill:#e6e6e6"></polygon><polygon points="225.31 316.97 227.33 315.81 227.33 214.67 225.31 215.83 225.31 316.97" style="fill:#e6e6e6"></polygon><polygon points="330.49 319.78 328.47 318.62 328.47 217.48 330.49 218.64 330.49 319.78" style="fill:#e6e6e6"></polygon><path d="M40.28,252.64v2.08a2.28,2.28,0,0,0,1,1.78l63.5,36.66a2.27,2.27,0,0,0,2.06,0l167.61-96.77a2.27,2.27,0,0,1,2.06,0l105.9,61.15a2.33,2.33,0,0,0,2.06,0L448,220.88a2.26,2.26,0,0,0,1-1.78V217a2.28,2.28,0,0,0-1-1.78l-171.46-99a2.25,2.25,0,0,0-2.05,0L41.31,250.86A2.28,2.28,0,0,0,40.28,252.64Z" style="fill:#1398CC"></path><path d="M40.28,252.64v2.08a2.28,2.28,0,0,0,1,1.78l63.5,36.66a2.27,2.27,0,0,0,2.06,0l167.61-96.77a2.27,2.27,0,0,1,2.06,0l105.9,61.15a2.33,2.33,0,0,0,2.06,0L448,220.88a2.26,2.26,0,0,0,1-1.78V217a2.28,2.28,0,0,0-1-1.78l-171.46-99a2.25,2.25,0,0,0-2.05,0L41.31,250.86A2.28,2.28,0,0,0,40.28,252.64Z" style="fill:#fff;opacity:0.65"></path><g style="opacity:0.5"><path d="M105.84,289v4.46a2.17,2.17,0,0,1-1-.24L41.31,256.5a2.25,2.25,0,0,1-1-1.78v-2.08a2.33,2.33,0,0,1,.83-1.65c-.37.33-.3.77.19,1.06l63.5,36.67A2.14,2.14,0,0,0,105.84,289Z" style="fill:#1398CC"></path><path d="M383.47,253.33v4.45a2,2,0,0,1-1-.25l-105.9-61.14a2.07,2.07,0,0,0-1-.25v-4.45a2.07,2.07,0,0,1,1,.25l105.9,61.14A2,2,0,0,0,383.47,253.33Z" style="fill:#1398CC"></path></g><path d="M41.31,252.05l63.5,36.66a2.25,2.25,0,0,0,2,0l167.62-96.78a2.33,2.33,0,0,1,2.06,0l105.9,61.15a2.27,2.27,0,0,0,2.06,0L448,216.43a.63.63,0,0,0,0-1.19l-171.46-99a2.25,2.25,0,0,0-2.05,0L41.31,250.86A.63.63,0,0,0,41.31,252.05Z" style="fill:#1398CC"></path><path d="M41.31,252.05l63.5,36.66a2.25,2.25,0,0,0,2,0l167.62-96.78a2.33,2.33,0,0,1,2.06,0l105.9,61.15a2.27,2.27,0,0,0,2.06,0L448,216.43a.63.63,0,0,0,0-1.19l-171.46-99a2.25,2.25,0,0,0-2.05,0L41.31,250.86A.63.63,0,0,0,41.31,252.05Z" style="fill:#fff;opacity:0.8"></path><path d="M153.85,252.49,104,223.7a1.25,1.25,0,0,1,0-2.37l65.3-37.7a4.51,4.51,0,0,1,4.11,0l49.87,28.79a1.25,1.25,0,0,1,0,2.37L158,252.49A4.51,4.51,0,0,1,153.85,252.49Z" style="fill:#455a64"></path><path d="M159.76,241.52a19.34,19.34,0,0,1-9.41-2.24c-2.57-1.49-4-3.49-4-5.64s1.42-4.14,4-5.63c5.19-3,13.62-3,18.81,0,2.58,1.49,4,3.49,4,5.63s-1.42,4.15-4,5.64A19.3,19.3,0,0,1,159.76,241.52Zm0-15.05a18.49,18.49,0,0,0-9,2.16c-2.35,1.35-3.64,3.14-3.64,5s1.29,3.66,3.64,5c5,2.88,13.11,2.88,18.09,0,2.35-1.36,3.64-3.14,3.64-5s-1.29-3.66-3.64-5A18.48,18.48,0,0,0,159.76,226.47Z" style="fill:#e0e0e0"></path><path d="M136.62,228.16a19.16,19.16,0,0,1-9.4-2.24c-2.58-1.49-4-3.49-4-5.63s1.42-4.15,4-5.64c5.18-3,13.62-3,18.8,0h0c2.58,1.49,4,3.49,4,5.64s-1.42,4.14-4,5.63A19.19,19.19,0,0,1,136.62,228.16Zm0-15a18.52,18.52,0,0,0-9.05,2.16c-2.35,1.36-3.64,3.14-3.64,5s1.29,3.66,3.64,5c5,2.88,13.11,2.88,18.09,0,2.35-1.35,3.65-3.14,3.65-5s-1.3-3.67-3.65-5h0A18.45,18.45,0,0,0,136.62,213.11Z" style="fill:#e0e0e0"></path><path d="M190.6,223.71a19.32,19.32,0,0,1-9.4-2.24c-2.58-1.49-4-3.49-4-5.64s1.42-4.14,4-5.63c5.19-3,13.62-3,18.81,0,2.57,1.49,4,3.49,4,5.63s-1.42,4.15-4,5.64A19.34,19.34,0,0,1,190.6,223.71Zm0-15.05a18.48,18.48,0,0,0-9,2.16c-2.35,1.35-3.64,3.13-3.64,5s1.29,3.66,3.64,5c5,2.88,13.1,2.88,18.09,0,2.35-1.36,3.64-3.14,3.64-5s-1.29-3.66-3.64-5h0A18.49,18.49,0,0,0,190.6,208.66Z" style="fill:#e0e0e0"></path><path d="M167.47,210.35a19.16,19.16,0,0,1-9.4-2.24c-2.58-1.49-4-3.49-4-5.63s1.42-4.15,4-5.64c5.18-3,13.62-3,18.8,0h0c2.58,1.49,4,3.49,4,5.64s-1.42,4.14-4,5.63A19.19,19.19,0,0,1,167.47,210.35Zm0-15a18.52,18.52,0,0,0-9.05,2.16c-2.35,1.35-3.64,3.14-3.64,5s1.29,3.66,3.64,5c5,2.88,13.11,2.88,18.09,0,2.35-1.35,3.65-3.14,3.65-5s-1.3-3.67-3.65-5h0A18.48,18.48,0,0,0,167.47,195.3Z" style="fill:#e0e0e0"></path><path d="M161.81,268.08l57.59-33.25c1.13-.66,2-.12,2,1.19v56.32a4.56,4.56,0,0,1-2,3.56l-57.59,33.24c-1.13.66-2.05.13-2.05-1.18V271.64A4.54,4.54,0,0,1,161.81,268.08Z" style="fill:#455a64"></path><path d="M164.75,323.22a1.55,1.55,0,0,1-.77-.2,1.89,1.89,0,0,1-.84-1.74V273.86a5,5,0,0,1,2.29-4L215.3,241.1a1.72,1.72,0,0,1,2.77,1.6v47.41a5,5,0,0,1-2.29,4L165.9,322.87A2.21,2.21,0,0,1,164.75,323.22Zm1.16-52.51a4.09,4.09,0,0,0-1.82,3.15v47.42a.79.79,0,0,0,1.34.77l49.87-28.79a4.08,4.08,0,0,0,1.82-3.15V242.7a1,1,0,0,0-.36-.92,1,1,0,0,0-1,.14Z" style="fill:#37474f"></path><path d="M161.81,333.6l57.59-33.25c1.13-.66,2-.12,2,1.19v8.61a4.56,4.56,0,0,1-2,3.56L161.86,347c-1.14.65-2.06.12-2.07-1.19l0-8.63A4.51,4.51,0,0,1,161.81,333.6Z" style="fill:#455a64"></path><path d="M121.2,292.79c0,.69,2.08,0,4.64-1.43l6.13-3.52c2.57-1.49,4.65-3.26,4.65-4v-1.26l-15.42,8.91Z" style="fill:#455a64"></path><path d="M244.59,221.55c0,.69,2.08,0,4.65-1.43l6.12-3.53c2.57-1.48,4.65-3.25,4.65-4v-1.26l-15.42,8.91Z" style="fill:#455a64"></path><path d="M310.14,223.77c0,.7-2.08.06-4.65-1.42l-6.12-3.53c-2.57-1.48-4.65-3.26-4.65-3.95v-1.26l15.42,8.9Z" style="fill:#455a64"></path><path d="M364.13,254.94c0,.7-2.08.06-4.65-1.42L353.35,250c-2.56-1.48-4.65-3.26-4.65-4v-1.25l15.43,8.9Z" style="fill:#455a64"></path><path d="M364.13,281.65c0,.7-2.08.06-4.65-1.42l-6.13-3.53c-2.56-1.48-4.65-3.26-4.65-3.95v-1.26l15.43,8.91Z" style="fill:#455a64"></path><path d="M364.13,308.37c0,.7-2.08.06-4.65-1.42l-6.13-3.53c-2.56-1.48-4.65-3.26-4.65-4v-1.25l15.43,8.9Z" style="fill:#455a64"></path><polygon points="329.42 251.45 383.41 282.62 383.41 284.85 329.42 253.68 329.42 251.45" style="fill:#e6e6e6"></polygon><polygon points="329.42 278.17 383.41 309.34 383.41 311.56 329.42 280.4 329.42 278.17" style="fill:#e6e6e6"></polygon></g><g id="freepik--Eggs--inject-179"><path d="M58.67,250.13l17.33-10a3.41,3.41,0,0,1,3.11,0l43.63,25.18a.94.94,0,0,1,0,1.79l-17.32,10a3.41,3.41,0,0,1-3.11,0L58.67,251.92A1,1,0,0,1,58.67,250.13Z" style="opacity:0.15"></path><path d="M73.31,248.86c0,2.69-2.18,5.73-4.87,5.73s-4.88-3-4.88-5.73a4.88,4.88,0,0,1,9.75,0Z" style="fill:#1398CC"></path><path d="M73.31,248.86c0,2.69-2.18,5.73-4.87,5.73s-4.88-3-4.88-5.73a4.88,4.88,0,0,1,9.75,0Z" style="opacity:0.6000000000000001"></path><path d="M82.05,253.9c0,2.69-2.19,5.73-4.88,5.73s-4.87-3-4.87-5.73a4.88,4.88,0,0,1,9.75,0Z" style="fill:#1398CC"></path><path d="M82.05,253.9c0,2.69-2.19,5.73-4.88,5.73s-4.87-3-4.87-5.73a4.88,4.88,0,0,1,9.75,0Z" style="opacity:0.6000000000000001"></path><path d="M90.78,259c0,2.69-2.18,5.73-4.87,5.73S81,261.64,81,259a4.87,4.87,0,0,1,9.74,0Z" style="fill:#1398CC"></path><path d="M90.78,259c0,2.69-2.18,5.73-4.87,5.73S81,261.64,81,259a4.87,4.87,0,0,1,9.74,0Z" style="opacity:0.6000000000000001"></path><path d="M99.52,264c0,2.69-2.18,5.73-4.87,5.73s-4.87-3-4.87-5.73a4.87,4.87,0,1,1,9.74,0Z" style="fill:#1398CC"></path><path d="M99.52,264c0,2.69-2.18,5.73-4.87,5.73s-4.87-3-4.87-5.73a4.87,4.87,0,1,1,9.74,0Z" style="opacity:0.6000000000000001"></path><path d="M108.26,269.06c0,2.69-2.18,5.72-4.88,5.72s-4.87-3-4.87-5.72a4.88,4.88,0,1,1,9.75,0Z" style="fill:#1398CC"></path><path d="M108.26,269.06c0,2.69-2.18,5.72-4.88,5.72s-4.87-3-4.87-5.72a4.88,4.88,0,1,1,9.75,0Z" style="opacity:0.6000000000000001"></path><path d="M117.9,263.4c0,2.69-2.18,5.72-4.87,5.72s-4.88-3-4.88-5.72a4.88,4.88,0,1,1,9.75,0Z" style="fill:#1398CC"></path><path d="M117.9,263.4c0,2.69-2.18,5.72-4.87,5.72s-4.88-3-4.88-5.72a4.88,4.88,0,1,1,9.75,0Z" style="opacity:0.6000000000000001"></path><path d="M123.38,260.45a1.1,1.1,0,0,0-.64-.9L79.11,234.38a3.41,3.41,0,0,0-3.11,0l-17.33,10a1.07,1.07,0,0,0-.64.89c0,.31,0,1.39,0,1.69a1.09,1.09,0,0,0,.64.9L102.31,273a3.47,3.47,0,0,0,3.11,0l17.32-10a1.1,1.1,0,0,0,.64-.9Z" style="fill:#1398CC"></path><path d="M123.38,260.45a1.1,1.1,0,0,0-.64-.9L79.11,234.38a3.41,3.41,0,0,0-3.11,0l-17.33,10a1.07,1.07,0,0,0-.64.89c0,.31,0,1.39,0,1.69a1.09,1.09,0,0,0,.64.9L102.31,273a3.47,3.47,0,0,0,3.11,0l17.32-10a1.1,1.1,0,0,0,.64-.9Z" style="opacity:0.2"></path><path d="M103.89,271.73v1.68a3.16,3.16,0,0,1-1.58-.38L58.68,247.86A1.1,1.1,0,0,1,58,247c0-.3,0-1.38,0-1.68a1.1,1.1,0,0,0,.65.89l43.63,25.18A3.27,3.27,0,0,0,103.89,271.73Z" style="opacity:0.1"></path><path d="M58.67,244.38l17.33-10a3.41,3.41,0,0,1,3.11,0l43.63,25.17a1,1,0,0,1,0,1.8l-17.32,10a3.41,3.41,0,0,1-3.11,0L58.67,246.17A1,1,0,0,1,58.67,244.38Z" style="fill:#1398CC"></path><path d="M106.75,267.69c1.87-1.08,1.87-2.82,0-3.89a7.5,7.5,0,0,0-6.75,0c-1.87,1.07-1.88,2.81,0,3.88A7.48,7.48,0,0,0,106.75,267.69Z" style="opacity:0.1"></path><path d="M116.4,262.12c1.86-1.08,1.86-2.82,0-3.89a7.48,7.48,0,0,0-6.74,0c-1.88,1.07-1.88,2.81,0,3.88A7.5,7.5,0,0,0,116.4,262.12Z" style="opacity:0.1"></path><path d="M98,262.64c1.86-1.08,1.87-2.82,0-3.89a7.48,7.48,0,0,0-6.74,0c-1.88,1.07-1.88,2.81,0,3.88A7.5,7.5,0,0,0,98,262.64Z" style="opacity:0.1"></path><path d="M107.66,257.07c1.86-1.08,1.87-2.82,0-3.89a7.5,7.5,0,0,0-6.75,0c-1.87,1.07-1.88,2.81,0,3.88A7.5,7.5,0,0,0,107.66,257.07Z" style="opacity:0.1"></path><path d="M89.28,257.59c1.86-1.08,1.87-2.82,0-3.89a7.53,7.53,0,0,0-6.75,0c-1.87,1.07-1.88,2.81,0,3.88A7.5,7.5,0,0,0,89.28,257.59Z" style="opacity:0.1"></path><path d="M98.92,252c1.86-1.08,1.87-2.82,0-3.89a7.53,7.53,0,0,0-6.75,0c-1.87,1.07-1.88,2.81,0,3.88A7.48,7.48,0,0,0,98.92,252Z" style="opacity:0.1"></path><path d="M80.54,252.54c1.86-1.08,1.87-2.82,0-3.88a7.5,7.5,0,0,0-6.75,0c-1.87,1.07-1.88,2.81,0,3.88A7.48,7.48,0,0,0,80.54,252.54Z" style="opacity:0.1"></path><path d="M90.19,247c1.86-1.08,1.86-2.82,0-3.88a7.48,7.48,0,0,0-6.74,0c-1.88,1.07-1.89,2.81,0,3.88A7.5,7.5,0,0,0,90.19,247Z" style="opacity:0.1"></path><path d="M71.81,247.49c1.86-1.08,1.86-2.82,0-3.88a7.48,7.48,0,0,0-6.74,0c-1.88,1.07-1.88,2.81,0,3.88A7.5,7.5,0,0,0,71.81,247.49Z" style="opacity:0.1"></path><path d="M81.45,241.92c1.86-1.08,1.87-2.82,0-3.88a7.48,7.48,0,0,0-6.74,0c-1.88,1.07-1.88,2.81,0,3.88A7.5,7.5,0,0,0,81.45,241.92Z" style="opacity:0.1"></path><path d="M117.55,260.09a1.69,1.69,0,0,1,0,.23,3.62,3.62,0,0,1-.15.94,3.18,3.18,0,0,1-1,.85,7.45,7.45,0,0,1-6.74,0,3.21,3.21,0,0,1-1-.83,5.17,5.17,0,0,1-.16-1v-.46c0-.2,0-.4,0-.59a9.09,9.09,0,0,1,2.61-5.58,2.64,2.64,0,0,1,3.75,0,9,9,0,0,1,2.6,5.53c0,.21,0,.43,0,.64A1.77,1.77,0,0,1,117.55,260.09Z" style="fill:#fffffa"></path><path d="M108.81,255v.23a4.85,4.85,0,0,1-.15.94,3.18,3.18,0,0,1-1,.85,7.42,7.42,0,0,1-6.74,0,3.21,3.21,0,0,1-1-.83,3.86,3.86,0,0,1-.16-1c0-.07,0-.15,0-.23s0-.16,0-.23,0-.4,0-.6a9,9,0,0,1,2.61-5.57,2.64,2.64,0,0,1,3.75,0,8.93,8.93,0,0,1,2.6,5.52c0,.22,0,.43,0,.65Z" style="fill:#fffffa"></path><path d="M107.91,265.66a1.69,1.69,0,0,1,0,.23,3.62,3.62,0,0,1-.15.94,3.18,3.18,0,0,1-1,.85,7.45,7.45,0,0,1-6.74,0,3.21,3.21,0,0,1-1-.83,4.47,4.47,0,0,1-.16-1c0-.07,0-.15,0-.23s0-.16,0-.23,0-.4,0-.59a9,9,0,0,1,2.61-5.58,2.64,2.64,0,0,1,3.75,0,9,9,0,0,1,2.6,5.53c0,.21,0,.43,0,.64A1.69,1.69,0,0,1,107.91,265.66Z" style="fill:#fffffa"></path><path d="M99.17,260.61a1.69,1.69,0,0,1,0,.23,3.69,3.69,0,0,1-.15.94,3.18,3.18,0,0,1-1,.85,7.42,7.42,0,0,1-6.74,0,3.21,3.21,0,0,1-1-.83,5.07,5.07,0,0,1-.16-1v-.46c0-.2,0-.4,0-.6a9,9,0,0,1,2.61-5.57,2.64,2.64,0,0,1,3.75,0,9,9,0,0,1,2.6,5.52c0,.22,0,.43,0,.65A1.69,1.69,0,0,1,99.17,260.61Z" style="fill:#fffffa"></path><path d="M100.08,250a1.69,1.69,0,0,1,0,.23,3.62,3.62,0,0,1-.15.94,3.18,3.18,0,0,1-1,.85,7.45,7.45,0,0,1-6.74,0,3.21,3.21,0,0,1-1-.83,3.94,3.94,0,0,1-.16-1c0-.07,0-.15,0-.23s0-.15,0-.23a5.65,5.65,0,0,1,0-.59,9.08,9.08,0,0,1,2.6-5.58,2.66,2.66,0,0,1,3.76,0,9,9,0,0,1,2.6,5.53c0,.21,0,.43,0,.64A1.77,1.77,0,0,1,100.08,250Z" style="fill:#fffffa"></path><path d="M91.34,244.93a1.69,1.69,0,0,1,0,.23,3.69,3.69,0,0,1-.15.94,3.18,3.18,0,0,1-1,.85,7.42,7.42,0,0,1-6.74,0,3.21,3.21,0,0,1-1-.83,4.38,4.38,0,0,1-.16-1v-.46c0-.2,0-.4,0-.6a9,9,0,0,1,2.61-5.57,2.64,2.64,0,0,1,3.75,0,9,9,0,0,1,2.6,5.52c0,.22,0,.43,0,.65A1.69,1.69,0,0,1,91.34,244.93Z" style="fill:#fffffa"></path></g><g id="freepik--cooking-pot--inject-179"><path d="M421.46,220.37,387.52,240a7.37,7.37,0,0,1-6.66,0l-37.07-21.41c-1.84-1.06-1.84-2.78,0-3.84l33.94-19.59a7.37,7.37,0,0,1,6.66,0l37.07,21.4C423.3,217.58,423.3,219.31,421.46,220.37Z" style="opacity:0.15"></path><path d="M342.42,211.23a2.34,2.34,0,0,1,1.37-1.88l33.94-19.59a7.37,7.37,0,0,1,6.66,0l37.07,21.41a2.3,2.3,0,0,1,1.37,1.92c0,.64,0,3,0,3.64a2.32,2.32,0,0,1-1.37,1.89l-33.94,19.59a7.37,7.37,0,0,1-6.66,0L343.79,216.8a2.31,2.31,0,0,1-1.37-1.92C342.42,214.23,342.4,211.89,342.42,211.23Z" style="fill:#1398CC"></path><path d="M342.42,211.23a2.34,2.34,0,0,1,1.37-1.88l33.94-19.59a7.37,7.37,0,0,1,6.66,0l37.07,21.41a2.3,2.3,0,0,1,1.37,1.92c0,.64,0,3,0,3.64a2.32,2.32,0,0,1-1.37,1.89l-33.94,19.59a7.37,7.37,0,0,1-6.66,0L343.79,216.8a2.31,2.31,0,0,1-1.37-1.92C342.42,214.23,342.4,211.89,342.42,211.23Z" style="opacity:0.1"></path><path d="M421.46,215,387.52,234.6a7.37,7.37,0,0,1-6.66,0l-37.07-21.41c-1.84-1.06-1.84-2.78,0-3.84l33.94-19.59a7.37,7.37,0,0,1,6.66,0l37.07,21.41C423.3,212.23,423.3,214,421.46,215Z" style="fill:#1398CC"></path><path d="M384.19,235.4V239a6.81,6.81,0,0,0,3.33-.8l34-19.59a2.32,2.32,0,0,0,1.36-1.9c0-.63,0-2.81,0-3.54a2.37,2.37,0,0,1-1.36,1.83l-34,19.59A6.81,6.81,0,0,1,384.19,235.4Z" style="fill:#1398CC"></path><path d="M384.19,235.4V239a6.81,6.81,0,0,0,3.33-.8l34-19.59a2.32,2.32,0,0,0,1.36-1.9c0-.63,0-2.81,0-3.54a2.37,2.37,0,0,1-1.36,1.83l-34,19.59A6.81,6.81,0,0,1,384.19,235.4Z" style="opacity:0.2"></path><path d="M404.34,198.52c11.38,6.57,11.38,17.21,0,23.78s-29.81,6.57-41.19,0-11.37-17.21,0-23.78S393,192,404.34,198.52Z" style="opacity:0.15"></path><path d="M359.2,188.6a.77.77,0,0,0,.39-1.44l-3.13-1.8c-.55-.32-.85-.71-.85-1.09s.39-.92,1.06-1.31l5.83-3.37a6.44,6.44,0,0,1,5.69-.12l3.12,1.81a.78.78,0,0,0,1.05-.28.77.77,0,0,0-.28-1.05L369,178.14a7.89,7.89,0,0,0-7.23.12l-5.83,3.37a3.19,3.19,0,0,0-1.83,2.64,2.84,2.84,0,0,0,1.62,2.42l3.13,1.8A.76.76,0,0,0,359.2,188.6Z" style="fill:#e0e0e0"></path><path d="M356.08,191.76c0-4.08,2.7-8.17,8.1-11.29,10.81-6.24,28.33-6.24,39.14,0,5.4,3.12,8.1,7.2,8.1,11.29v18c0,4.08-2.7,8.17-8.1,11.29-10.81,6.24-28.33,6.24-39.14,0-5.4-3.12-8.1-7.21-8.1-11.3Z" style="fill:#263238"></path><path d="M403.31,180.47c10.81,6.24,10.81,16.35,0,22.59s-28.33,6.24-39.14,0-10.81-16.35,0-22.59S392.51,174.23,403.31,180.47Z" style="fill:#37474f"></path><path d="M401.7,181.82c9.92,5.49,9.92,14.4,0,19.89s-26,5.5-35.91,0-9.91-14.4,0-19.89S391.79,176.32,401.7,181.82Z" style="fill:#263238"></path><path d="M365.79,188.7c9.92-5.49,26-5.49,35.91,0,3.37,1.86,5.59,4.12,6.67,6.51-1.08,2.38-3.3,4.64-6.67,6.5-9.91,5.49-26,5.5-35.91,0-3.36-1.86-5.58-4.12-6.66-6.5C360.21,192.82,362.43,190.56,365.79,188.7Z" style="fill:#1398CC"></path><path d="M402.85,212.78a7.68,7.68,0,0,0,3.8-.94l5.83-3.37a3.17,3.17,0,0,0,1.82-2.63,2.88,2.88,0,0,0-1.63-2.44l-3.14-1.81a.78.78,0,0,0-1.06.28.77.77,0,0,0,.29,1l3.14,1.82c.56.32.86.71.86,1.1s-.38.92-1.05,1.3l-5.83,3.37a6.41,6.41,0,0,1-5.69.12l-3.12-1.8a.76.76,0,0,0-1.05.28.77.77,0,0,0,.28,1l3.12,1.8A7,7,0,0,0,402.85,212.78Z" style="fill:#e0e0e0"></path><path d="M405.11,195.59a27,27,0,0,0-5.3-19.37c-2.37-3.05-8.8-5.44-12.5-6.43-3-.79-6.84-1.76-8.45-4.82a6,6,0,0,1-.6-2.72,11.56,11.56,0,0,1,2-6.09c2.33-3.66,7.19-6.66,5.34-11.63-.86-2.32-3.07-4.58-5.74-4.4a6.78,6.78,0,0,0-1.79.36,4.82,4.82,0,0,0-2.25,1.78c1.26-.48,4.45-1.34,5.87,2.27s-5.31,7.77-7.93,9.69c-2.92,2.15-5.89,4.68-7,8.25-1,3.14-.08,6.39,1.48,9.17s2.6,5.6,1.89,9c-.63,3.09-2.45,5.21-4.52,7.44s-3.93,4.56-3.93,7.79C368.26,206.3,400.09,207,405.11,195.59Z" style="fill:#e0e0e0;opacity:0.5"></path></g></g><g id="freepik--Shelves--inject-179"><polygon id="freepik--shadow--inject-179" points="51.51 117.53 51.51 137.74 115.87 100.58 115.87 80.91 51.51 117.53" style="fill:#e0e0e0"></polygon><polygon id="freepik--shadow--inject-179" points="51.51 167.3 51.51 187.51 115.87 150.35 115.87 130.68 51.51 167.3" style="fill:#e0e0e0"></polygon><polygon id="freepik--shadow--inject-179" points="448.6 98.51 448.6 118.72 384.24 81.56 384.24 61.89 448.6 98.51" style="fill:#e0e0e0"></polygon><g id="freepik--Cans--inject-179"><g id="freepik--Shelf--inject-179"><path d="M140.41,146v-3.6h0a1.23,1.23,0,0,0-.72-1L118,129a3.69,3.69,0,0,0-3.33,0L52.24,164.82a1.23,1.23,0,0,0-.72,1h0v3.59h0a1.21,1.21,0,0,0,.72,1l21.7,12.46a3.71,3.71,0,0,0,3.34,0L139.69,147a1.22,1.22,0,0,0,.72-.95Z" style="fill:#1398CC"></path><path d="M140.41,146v-3.6h0a1.23,1.23,0,0,0-.72-1L118,129a3.69,3.69,0,0,0-3.33,0L52.24,164.82a1.23,1.23,0,0,0-.72,1h0v3.59h0a1.21,1.21,0,0,0,.72,1l21.7,12.46a3.71,3.71,0,0,0,3.34,0L139.69,147a1.22,1.22,0,0,0,.72-.95Z" style="fill:#fff;opacity:0.65"></path><path d="M52.24,166.74l21.7,12.46a3.71,3.71,0,0,0,3.34,0l62.41-35.82a1,1,0,0,0,0-1.92L118,129a3.69,3.69,0,0,0-3.33,0L52.24,164.82A1,1,0,0,0,52.24,166.74Z" style="fill:#1398CC"></path><path d="M52.24,166.74l21.7,12.46a3.71,3.71,0,0,0,3.34,0l62.41-35.82a1,1,0,0,0,0-1.92L118,129a3.69,3.69,0,0,0-3.33,0L52.24,164.82A1,1,0,0,0,52.24,166.74Z" style="fill:#fff;opacity:0.8"></path><path d="M75.61,179.6v3.59a3.45,3.45,0,0,1-1.66-.4L52.23,170.33a1.18,1.18,0,0,1-.71-1h0v-3.6h0a.9.9,0,0,1,.13-.4c-.25.46-.06,1,.58,1.36L74,179.2A3.32,3.32,0,0,0,75.61,179.6Z" style="fill:#1398CC"></path><path d="M75.61,179.6v3.59a3.45,3.45,0,0,1-1.66-.4L52.23,170.33a1.18,1.18,0,0,1-.71-1h0v-3.6h0a.9.9,0,0,1,.13-.4c-.25.46-.06,1,.58,1.36L74,179.2A3.32,3.32,0,0,0,75.61,179.6Z" style="fill:#fff;opacity:0.5"></path></g><path d="M111.83,143.86a15.91,15.91,0,0,0,14.38,0c4-2.3,4-6,0-8.31a15.91,15.91,0,0,0-14.38,0C107.86,137.85,107.86,141.56,111.83,143.86Z" style="opacity:0.05"></path><path d="M128.62,139.65h0V122.5H111.46v17.15h0c-.07,1.32.75,2.65,2.5,3.66a13.39,13.39,0,0,0,12.14,0C127.86,142.3,128.69,141,128.62,139.65Z" style="fill:#ebebeb"></path><path d="M114,126a13.45,13.45,0,0,0,12.14,0c3.36-1.94,3.36-5.08,0-7A13.39,13.39,0,0,0,114,119C110.62,120.93,110.62,124.07,114,126Z" style="fill:#fafafa"></path><path d="M114.34,125.72a12.84,12.84,0,0,0,11.4,0c3.15-1.78,3.15-4.66,0-6.44a12.84,12.84,0,0,0-11.4,0C111.19,121.06,111.19,123.94,114.34,125.72Z" style="fill:#ebebeb"></path><path d="M125.74,120.12a12.84,12.84,0,0,0-11.4,0,4.18,4.18,0,0,0-2.32,2.8,4.18,4.18,0,0,0,2.32,2.8,12.84,12.84,0,0,0,11.4,0,4.2,4.2,0,0,0,2.33-2.8A4.2,4.2,0,0,0,125.74,120.12Z" style="fill:#f5f5f5"></path><path d="M111.46,136.75c0,1.28.82,2.56,2.51,3.53a13.39,13.39,0,0,0,12.14,0c1.68-1,2.52-2.24,2.52-3.51V125.3c0,1.26-.84,2.53-2.52,3.5a13.39,13.39,0,0,1-12.14,0c-1.69-1-2.53-2.25-2.51-3.53Z" style="fill:#1398CC"></path><path d="M123.56,144.32a13.53,13.53,0,0,1-9.59-1c-1.74-1-2.57-2.34-2.5-3.67h0V122.5c0,1.27.85,2.54,2.52,3.51a8,8,0,0,0,.83.41v15.31C114.8,143.17,119.59,144.87,123.56,144.32Z" style="opacity:0.05"></path><path d="M122,125.56l-.91-.53c-.74-.42-.94-1-.44-1.29a2.6,2.6,0,0,1,2.24.26l.91.52c.74.43.93,1,.44,1.29A2.56,2.56,0,0,1,122,125.56Z" style="fill:#e0e0e0"></path><ellipse cx="121.54" cy="124.26" rx="0.69" ry="0.4" style="fill:#f5f5f5"></ellipse><path d="M122.85,125.51a1.06,1.06,0,0,0,1,0c.27-.15.27-.4,0-.56a1.06,1.06,0,0,0-1,0C122.58,125.11,122.58,125.36,122.85,125.51Z" style="fill:#f5f5f5"></path><path d="M96.17,152.88a15.91,15.91,0,0,0,14.38,0c4-2.29,4-6,0-8.3a15.85,15.85,0,0,0-14.38,0C92.2,146.87,92.2,150.59,96.17,152.88Z" style="opacity:0.05"></path><path d="M113,148.67h0V131.52H95.8v17.15h0c-.07,1.32.75,2.65,2.5,3.66a13.39,13.39,0,0,0,12.14,0C112.2,151.32,113,150,113,148.67Z" style="fill:#ebebeb"></path><path d="M98.31,135a13.39,13.39,0,0,0,12.14,0c3.36-1.94,3.36-5.08,0-7a13.39,13.39,0,0,0-12.14,0C95,130,95,133.09,98.31,135Z" style="fill:#fafafa"></path><ellipse cx="104.38" cy="131.52" rx="8.06" ry="4.55" style="fill:#ebebeb"></ellipse><path d="M110.08,129.14a12.84,12.84,0,0,0-11.4,0,4.16,4.16,0,0,0-2.32,2.8,4.16,4.16,0,0,0,2.32,2.8,12.84,12.84,0,0,0,11.4,0,4.2,4.2,0,0,0,2.33-2.8A4.2,4.2,0,0,0,110.08,129.14Z" style="fill:#f5f5f5"></path><path d="M95.8,145.77c0,1.28.82,2.56,2.51,3.53a13.39,13.39,0,0,0,12.14,0c1.68-1,2.52-2.23,2.52-3.5V134.32c0,1.27-.84,2.54-2.52,3.5a13.39,13.39,0,0,1-12.14,0c-1.69-1-2.53-2.25-2.51-3.53Z" style="fill:#455a64"></path><path d="M107.9,153.35a13.59,13.59,0,0,1-9.59-1c-1.74-1-2.57-2.34-2.5-3.66h0V131.52c0,1.27.85,2.54,2.52,3.51a6.46,6.46,0,0,0,.83.42v15.31C99.14,152.19,103.93,153.89,107.9,153.35Z" style="opacity:0.05"></path><path d="M106.34,134.58l-.91-.52c-.74-.43-.94-1-.44-1.29a2.56,2.56,0,0,1,2.24.25l.91.53c.74.42.93,1,.44,1.29A2.6,2.6,0,0,1,106.34,134.58Z" style="fill:#e0e0e0"></path><path d="M105.39,133.56a1.06,1.06,0,0,0,1,0,.29.29,0,0,0,0-.56,1.06,1.06,0,0,0-1,0A.29.29,0,0,0,105.39,133.56Z" style="fill:#f5f5f5"></path><path d="M107.19,134.54a1.12,1.12,0,0,0,1,0,.3.3,0,0,0,0-.57,1.12,1.12,0,0,0-1,0A.3.3,0,0,0,107.19,134.54Z" style="fill:#f5f5f5"></path><path d="M64.85,170.93a15.91,15.91,0,0,0,14.38,0c4-2.3,4-6,0-8.31a15.91,15.91,0,0,0-14.38,0C60.88,164.92,60.88,168.63,64.85,170.93Z" style="opacity:0.05"></path><path d="M81.63,166.72h0V149.57H64.48v17.15h0c-.07,1.32.75,2.65,2.5,3.66a13.45,13.45,0,0,0,12.14,0C80.88,169.37,81.71,168,81.63,166.72Z" style="fill:#ebebeb"></path><path d="M67,153.08a13.45,13.45,0,0,0,12.14,0c3.36-1.94,3.36-5.08,0-7a13.39,13.39,0,0,0-12.14,0C63.64,148,63.64,151.14,67,153.08Z" style="fill:#fafafa"></path><path d="M67.36,152.79a12.84,12.84,0,0,0,11.4,0c3.15-1.78,3.15-4.66,0-6.44a12.84,12.84,0,0,0-11.4,0C64.21,148.13,64.21,151,67.36,152.79Z" style="fill:#ebebeb"></path><path d="M78.76,147.18a12.9,12.9,0,0,0-11.4,0A4.22,4.22,0,0,0,65,150a4.2,4.2,0,0,0,2.33,2.8,12.84,12.84,0,0,0,11.4,0,4.2,4.2,0,0,0,2.33-2.8A4.22,4.22,0,0,0,78.76,147.18Z" style="fill:#f5f5f5"></path><path d="M64.48,163.82c0,1.27.82,2.55,2.51,3.53a13.45,13.45,0,0,0,12.14,0c1.68-1,2.52-2.24,2.52-3.51V152.36c0,1.27-.84,2.54-2.52,3.51a13.39,13.39,0,0,1-12.14,0c-1.69-1-2.53-2.25-2.51-3.53Z" style="fill:#1398CC"></path><path d="M64.48,163.82c0,1.27.82,2.55,2.51,3.53a13.45,13.45,0,0,0,12.14,0c1.68-1,2.52-2.24,2.52-3.51V152.36c0,1.27-.84,2.54-2.52,3.51a13.39,13.39,0,0,1-12.14,0c-1.69-1-2.53-2.25-2.51-3.53Z" style="opacity:0.4"></path><path d="M76.58,171.39a13.53,13.53,0,0,1-9.59-1c-1.74-1-2.57-2.34-2.5-3.67h0V149.57c0,1.27.85,2.54,2.52,3.51a8,8,0,0,0,.83.41V168.8C67.82,170.24,72.61,171.94,76.58,171.39Z" style="opacity:0.05"></path><path d="M75,152.63l-.91-.53c-.74-.42-.94-1-.44-1.29a2.58,2.58,0,0,1,2.23.26l.92.52c.73.43.93,1,.44,1.29A2.56,2.56,0,0,1,75,152.63Z" style="fill:#e0e0e0"></path><path d="M74.07,151.61a1.12,1.12,0,0,0,1,0,.3.3,0,0,0,0-.57,1.12,1.12,0,0,0-1,0A.3.3,0,0,0,74.07,151.61Z" style="fill:#f5f5f5"></path><path d="M75.87,152.58a1.06,1.06,0,0,0,1,0,.29.29,0,0,0,0-.56,1.06,1.06,0,0,0-1,0A.29.29,0,0,0,75.87,152.58Z" style="fill:#f5f5f5"></path></g><g id="freepik--Bottles--inject-179"><g id="freepik--shelf--inject-179"><path d="M140.55,94.83V91.24h0a1.27,1.27,0,0,0-.72-1L118.12,77.82a3.71,3.71,0,0,0-3.34,0L52.37,113.64a1.21,1.21,0,0,0-.72,1h0v3.59h0a1.23,1.23,0,0,0,.72,1l21.71,12.46a3.77,3.77,0,0,0,3.34,0l62.41-35.82a1.27,1.27,0,0,0,.72-1Z" style="fill:#1398CC"></path><path d="M140.55,94.83V91.24h0a1.27,1.27,0,0,0-.72-1L118.12,77.82a3.71,3.71,0,0,0-3.34,0L52.37,113.64a1.21,1.21,0,0,0-.72,1h0v3.59h0a1.23,1.23,0,0,0,.72,1l21.71,12.46a3.77,3.77,0,0,0,3.34,0l62.41-35.82a1.27,1.27,0,0,0,.72-1Z" style="fill:#fff;opacity:0.65"></path><path d="M52.37,115.55,74.08,128a3.71,3.71,0,0,0,3.34,0L139.83,92.2a1,1,0,0,0,0-1.92L118.12,77.82a3.71,3.71,0,0,0-3.34,0L52.37,113.64A1,1,0,0,0,52.37,115.55Z" style="fill:#1398CC"></path><path d="M52.37,115.55,74.08,128a3.71,3.71,0,0,0,3.34,0L139.83,92.2a1,1,0,0,0,0-1.92L118.12,77.82a3.71,3.71,0,0,0-3.34,0L52.37,113.64A1,1,0,0,0,52.37,115.55Z" style="fill:#fff;opacity:0.8"></path><path d="M75.74,128.41V132a3.45,3.45,0,0,1-1.66-.39L52.37,119.15a1.23,1.23,0,0,1-.72-1h0V114.6h0a.91.91,0,0,1,.14-.41c-.26.46-.07,1,.58,1.37L74.08,128A3.32,3.32,0,0,0,75.74,128.41Z" style="fill:#1398CC"></path><path d="M75.74,128.41V132a3.45,3.45,0,0,1-1.66-.39L52.37,119.15a1.23,1.23,0,0,1-.72-1h0V114.6h0a.91.91,0,0,1,.14-.41c-.26.46-.07,1,.58,1.37L74.08,128A3.32,3.32,0,0,0,75.74,128.41Z" style="fill:#fff;opacity:0.5"></path></g><path d="M112.26,93.81c-3.31-1.9-3.31-5,0-6.87a13.43,13.43,0,0,1,12,0c3.32,1.9,3.32,5,0,6.87A13.43,13.43,0,0,1,112.26,93.81Z" style="opacity:0.05"></path><path d="M124.59,64.38a7.46,7.46,0,0,0-1.1-.53,1.87,1.87,0,0,1-1.2-1.73V59h-6.91v3.13a1.87,1.87,0,0,1-1.2,1.73,7.46,7.46,0,0,0-1.1.53,4.92,4.92,0,0,0-2.39,3.92v21c0,1.2.8,2.4,2.39,3.32a12.69,12.69,0,0,0,11.51,0c1.59-.92,2.38-2.12,2.38-3.32v-21A4.9,4.9,0,0,0,124.59,64.38Z" style="fill:#f0f0f0"></path><path d="M124.59,72.61a12.79,12.79,0,0,1-11.5,0c-1.59-.91-2.39-2.1-2.39-3.29V84.23c0,1.19.8,2.38,2.39,3.29a12.86,12.86,0,0,0,11.5,0c1.59-.91,2.38-2.1,2.38-3.29V69.32C127,70.51,126.18,71.7,124.59,72.61Z" style="fill:#1398CC"></path><path d="M113.32,89.37V68.79a3.1,3.1,0,0,1,1.41-3c2.38-1.21,2.69-2.19,2.69-3.41V59h-2v3.13a1.87,1.87,0,0,1-1.2,1.73,7.46,7.46,0,0,0-1.1.53,4.92,4.92,0,0,0-2.39,3.92v21c0,1.2.8,2.4,2.39,3.32a12.72,12.72,0,0,0,8.45,1.11C114.92,94.2,113.32,91.4,113.32,89.37Z" style="opacity:0.1;mix-blend-mode:multiply"></path><path d="M122.5,58.06V59a1.87,1.87,0,0,1-1.1,1.53,5.83,5.83,0,0,1-5.27,0,2.49,2.49,0,0,1-.81-.71,1.4,1.4,0,0,1-.27-.81v-.93a1,1,0,0,1,0-.25,2,2,0,0,1,1.06-1.28l.06,0a5.82,5.82,0,0,1,5.21,0,2,2,0,0,1,1.07,1.27A1.22,1.22,0,0,1,122.5,58.06Z" style="fill:#37474f"></path><path d="M116.14,59.58c-1.46-.84-1.46-2.21,0-3a5.8,5.8,0,0,1,5.26,0c1.46.84,1.46,2.21,0,3A5.8,5.8,0,0,1,116.14,59.58Z" style="fill:#263238"></path><path d="M122.5,55.21v2.33a1.09,1.09,0,0,1,0,.26,2,2,0,0,1-1.07,1.27,5.17,5.17,0,0,1-2.33.62,5.58,5.58,0,0,1-2.94-.62,2.49,2.49,0,0,1-.81-.71,1.5,1.5,0,0,1-.25-.55,1.14,1.14,0,0,1,0-.26V55.2a1.85,1.85,0,0,1,1.08-1.52l.2-.1a5.85,5.85,0,0,1,5.07.1A1.88,1.88,0,0,1,122.5,55.21Z" style="fill:#37474f"></path><path d="M122.5,55.19c0,1.19-1.67,2.15-3.73,2.15s-3.72-1-3.72-2.15,1.66-2.14,3.72-2.14S122.5,54,122.5,55.19Z" style="fill:#455a64"></path><path d="M82.07,111c-3.32-1.89-3.32-5,0-6.86a13.37,13.37,0,0,1,12,0c3.31,1.89,3.31,5,0,6.86A13.37,13.37,0,0,1,82.07,111Z" style="opacity:0.05"></path><path d="M94.39,81.52a8.62,8.62,0,0,0-1.1-.53,1.86,1.86,0,0,1-1.2-1.73V76.14H85.18v3.12A1.86,1.86,0,0,1,84,81a10.14,10.14,0,0,0-1.1.53,4.9,4.9,0,0,0-2.38,3.92v21c0,1.21.79,2.41,2.38,3.33a12.75,12.75,0,0,0,11.51,0c1.59-.92,2.39-2.12,2.39-3.33v-21A4.92,4.92,0,0,0,94.39,81.52Z" style="fill:#1398CC"></path><path d="M83.12,106.51V85.93a3.1,3.1,0,0,1,1.41-3c2.39-1.2,2.69-2.18,2.69-3.41V76.14h-2v3.12A1.86,1.86,0,0,1,84,81a10.14,10.14,0,0,0-1.1.53,4.9,4.9,0,0,0-2.38,3.92v21c0,1.21.79,2.41,2.38,3.33a12.75,12.75,0,0,0,8.46,1.1C84.72,111.35,83.12,108.54,83.12,106.51Z" style="opacity:0.1;mix-blend-mode:multiply"></path><path d="M92.3,75.21v.92a1.87,1.87,0,0,1-1.09,1.53,5.83,5.83,0,0,1-5.27,0,2.45,2.45,0,0,1-.82-.72,1.37,1.37,0,0,1-.27-.8V75.2a.72.72,0,0,1,0-.25,2,2,0,0,1,1.06-1.27l0,0a5.85,5.85,0,0,1,5.22,0A2,2,0,0,1,92.27,75,1.09,1.09,0,0,1,92.3,75.21Z" style="fill:#37474f"></path><path d="M85.94,76.72c-1.46-.84-1.46-2.2,0-3a5.83,5.83,0,0,1,5.27,0c1.45.84,1.45,2.2,0,3A5.83,5.83,0,0,1,85.94,76.72Z" style="fill:#263238"></path><path d="M92.3,72.36v2.33a1.22,1.22,0,0,1,0,.26,2,2,0,0,1-1.06,1.27,5.33,5.33,0,0,1-2.33.62,5.45,5.45,0,0,1-2.94-.63,2.33,2.33,0,0,1-.82-.71,1.22,1.22,0,0,1-.24-.55.72.72,0,0,1,0-.25V72.35a1.84,1.84,0,0,1,1.09-1.52l.19-.11a5.87,5.87,0,0,1,5.08.11A1.84,1.84,0,0,1,92.3,72.36Z" style="fill:#37474f"></path><path d="M92.3,72.34c0,1.18-1.67,2.14-3.73,2.14s-3.72-1-3.72-2.14,1.67-2.14,3.72-2.14S92.3,71.16,92.3,72.34Z" style="fill:#455a64"></path><path d="M67,119.53c-3.32-1.9-3.32-5,0-6.87a13.43,13.43,0,0,1,12,0c3.31,1.9,3.31,5,0,6.87A13.43,13.43,0,0,1,67,119.53Z" style="opacity:0.05"></path><path d="M79.29,90.1a7.46,7.46,0,0,0-1.1-.53A1.9,1.9,0,0,1,77,87.83V84.71H70.08v3.12a1.88,1.88,0,0,1-1.2,1.74,8.57,8.57,0,0,0-1.1.53A4.88,4.88,0,0,0,65.4,94v21c0,1.2.79,2.4,2.38,3.32a12.69,12.69,0,0,0,11.51,0c1.59-.92,2.39-2.12,2.39-3.32V94A4.89,4.89,0,0,0,79.29,90.1Z" style="fill:#f0f0f0"></path><path d="M79.3,98.33a12.81,12.81,0,0,1-11.51,0c-1.59-.91-2.38-2.1-2.38-3.29V110c0,1.19.79,2.38,2.38,3.29a12.88,12.88,0,0,0,11.51,0c1.58-.91,2.38-2.1,2.38-3.29V95C81.68,96.23,80.88,97.42,79.3,98.33Z" style="fill:#455a64"></path><path d="M68,115.09V94.51a3.09,3.09,0,0,1,1.41-3c2.39-1.21,2.69-2.19,2.69-3.41V84.71h-2v3.12a1.88,1.88,0,0,1-1.2,1.74,8.57,8.57,0,0,0-1.1.53A4.88,4.88,0,0,0,65.4,94v21c0,1.2.79,2.4,2.38,3.32a12.75,12.75,0,0,0,8.46,1.11C69.62,119.92,68,117.12,68,115.09Z" style="opacity:0.1;mix-blend-mode:multiply"></path><path d="M77.2,83.78v.92a1.86,1.86,0,0,1-1.09,1.53,5.83,5.83,0,0,1-5.27,0,2.54,2.54,0,0,1-.82-.71,1.4,1.4,0,0,1-.27-.81v-.94a1.13,1.13,0,0,1,0-.25,2,2,0,0,1,1.06-1.27l0,0a5.85,5.85,0,0,1,5.22,0,2,2,0,0,1,1.06,1.27A1.15,1.15,0,0,1,77.2,83.78Z" style="fill:#1398CC"></path><path d="M77.2,83.78v.92a1.86,1.86,0,0,1-1.09,1.53,5.83,5.83,0,0,1-5.27,0,2.54,2.54,0,0,1-.82-.71,1.4,1.4,0,0,1-.27-.81v-.94a1.13,1.13,0,0,1,0-.25,2,2,0,0,1,1.06-1.27l0,0a5.85,5.85,0,0,1,5.22,0,2,2,0,0,1,1.06,1.27A1.15,1.15,0,0,1,77.2,83.78Z" style="opacity:0.1;mix-blend-mode:multiply"></path><path d="M70.84,85.29c-1.46-.84-1.46-2.2,0-3a5.83,5.83,0,0,1,5.27,0c1.45.84,1.45,2.2,0,3A5.83,5.83,0,0,1,70.84,85.29Z" style="opacity:0.1;mix-blend-mode:multiply"></path><path d="M77.2,80.93v2.33a1.15,1.15,0,0,1,0,.26,2,2,0,0,1-1.06,1.27,5.2,5.2,0,0,1-2.33.62,5.56,5.56,0,0,1-2.94-.62,2.54,2.54,0,0,1-.82-.71,1.31,1.31,0,0,1-.24-.56,1.07,1.07,0,0,1,0-.25V80.92a1.84,1.84,0,0,1,1.09-1.52,1.24,1.24,0,0,1,.2-.1,5.85,5.85,0,0,1,5.07.1A1.86,1.86,0,0,1,77.2,80.93Z" style="fill:#1398CC"></path><path d="M77.2,80.93v2.33a1.15,1.15,0,0,1,0,.26,2,2,0,0,1-1.06,1.27,5.2,5.2,0,0,1-2.33.62,5.56,5.56,0,0,1-2.94-.62,2.54,2.54,0,0,1-.82-.71,1.31,1.31,0,0,1-.24-.56,1.07,1.07,0,0,1,0-.25V80.92a1.84,1.84,0,0,1,1.09-1.52,1.24,1.24,0,0,1,.2-.1,5.85,5.85,0,0,1,5.07.1A1.86,1.86,0,0,1,77.2,80.93Z" style="opacity:0.1;mix-blend-mode:multiply"></path><path d="M77.2,80.91c0,1.18-1.67,2.14-3.73,2.14s-3.72-1-3.72-2.14,1.67-2.14,3.72-2.14S77.2,79.73,77.2,80.91Z" style="fill:#1398CC"></path></g><g id="freepik--book-shelf--inject-179"><g id="freepik--shelf--inject-179"><path d="M359.71,76v-3.6h0a1.22,1.22,0,0,1,.72-1L382.14,59a3.71,3.71,0,0,1,3.34,0l62.41,35.81a1.23,1.23,0,0,1,.72,1h0v3.6h0a1.22,1.22,0,0,1-.72,1l-21.71,12.46a3.71,3.71,0,0,1-3.34,0L360.43,76.92a1.23,1.23,0,0,1-.72-1Z" style="fill:#1398CC"></path><path d="M359.71,76v-3.6h0a1.22,1.22,0,0,1,.72-1L382.14,59a3.71,3.71,0,0,1,3.34,0l62.41,35.81a1.23,1.23,0,0,1,.72,1h0v3.6h0a1.22,1.22,0,0,1-.72,1l-21.71,12.46a3.71,3.71,0,0,1-3.34,0L360.43,76.92a1.23,1.23,0,0,1-.72-1Z" style="fill:#fff;opacity:0.65"></path><path d="M447.89,96.68l-21.71,12.46a3.71,3.71,0,0,1-3.34,0L360.43,73.32a1,1,0,0,1,0-1.91L382.14,59a3.71,3.71,0,0,1,3.34,0l62.41,35.81A1,1,0,0,1,447.89,96.68Z" style="fill:#1398CC"></path><path d="M447.89,96.68l-21.71,12.46a3.71,3.71,0,0,1-3.34,0L360.43,73.32a1,1,0,0,1,0-1.91L382.14,59a3.71,3.71,0,0,1,3.34,0l62.41,35.81A1,1,0,0,1,447.89,96.68Z" style="fill:#fff;opacity:0.8"></path><path d="M424.51,109.54v3.59a3.46,3.46,0,0,0,1.67-.4l21.71-12.45a1.24,1.24,0,0,0,.72-1h0v-3.6h0a.92.92,0,0,0-.14-.4c.25.46.06,1-.58,1.36l-21.71,12.46A3.36,3.36,0,0,1,424.51,109.54Z" style="fill:#1398CC"></path><path d="M424.51,109.54v3.59a3.46,3.46,0,0,0,1.67-.4l21.71-12.45a1.24,1.24,0,0,0,.72-1h0v-3.6h0a.92.92,0,0,0-.14-.4c.25.46.06,1-.58,1.36l-21.71,12.46A3.36,3.36,0,0,1,424.51,109.54Z" style="fill:#fff;opacity:0.5"></path></g><polygon points="412.85 79.15 394.46 89.64 364.07 72.2 382.46 61.71 412.85 79.15"></polygon><path d="M394.25,88.84,412,78.66a7.34,7.34,0,0,1,.1-4.6L394.46,84.13A17.31,17.31,0,0,0,394.25,88.84Z" style="fill:#f5f5f5"></path><path d="M395.36,82.69a3.75,3.75,0,0,0-1.7,2.94v3.43c0,1.08.76,1.52,1.7,1l17.49-10v-.85L395.6,89c-.57.32-1,.06-1-.59V85.22a2.26,2.26,0,0,1,1-1.76l17.23-9.84v-1Z" style="fill:#263238"></path><path d="M412.85,72.66,382.46,55.22,365,65.26a3.74,3.74,0,0,0-1.71,2.93v3.43a1.19,1.19,0,0,0,.5,1.1l30.39,17.43a1.17,1.17,0,0,1-.5-1.09V85.63a3.75,3.75,0,0,1,1.7-2.94Z" style="fill:#455a64"></path><path d="M394.16,84a3.43,3.43,0,0,0-.5,1.67v3.43a1.17,1.17,0,0,0,.5,1.09L363.77,72.72a1.19,1.19,0,0,1-.5-1.1V68.19a3.43,3.43,0,0,1,.5-1.67Z" style="fill:#37474f"></path><path d="M366,72l.13,0c.09,0,.09,0,.09-.17v-2c0-.13,0-.19-.09-.26l-.13-.11v-.26l1.4.81.11.79-.2,0c-.11-.54-.19-.63-.47-.79l-.2-.12V71l.13.08c.21.12.23.12.27-.21l.16.06v1.1L367,72c0-.42,0-.48-.24-.6l-.16-.1v.82c0,.16,0,.2.11.27l.18.15v.26l-.93-.54Z" style="fill:#fff"></path><path d="M367.89,73.12l.14,0c.07,0,.07,0,.07-.17V71.85c0-.2,0-.25-.09-.33l-.14-.11,0-.25.53.26,0,0,0,.38h0c.07-.15.19-.33.43-.19a.75.75,0,0,1,.34.67c0,.23-.08.34-.23.25a.39.39,0,0,1-.2-.33.6.6,0,0,1,.07-.24c-.21-.17-.38,0-.38.44v.78c0,.12,0,.17.07.23l.24.19v.26l-.93-.54Z" style="fill:#fff"></path><path d="M369.63,73.34c0-.8.31-1.08.74-.83a1.31,1.31,0,0,1,.57,1.16,2.09,2.09,0,0,1,0,.43l-.84-.49a1,1,0,0,0,.36.84.36.36,0,0,0,.41,0l.12.28a.43.43,0,0,1-.63.13A1.75,1.75,0,0,1,369.63,73.34Zm.91.22v-.23c0-.31-.07-.44-.21-.52s-.26.13-.27.47Z" style="fill:#fff"></path><path d="M371.41,75.15l.14,0c.07,0,.07,0,.07-.17V73.88c0-.2,0-.25-.1-.32l-.13-.12,0-.25.53.26,0,0,0,.4h0c.08-.16.19-.34.47-.17a1,1,0,0,1,.47,1v1.08c0,.12,0,.16.08.23l.14.11v.26l-.82-.47V75.7l.11,0c.07,0,.08,0,.08-.14v-.87c0-.31,0-.52-.21-.63s-.29,0-.29.4v.8c0,.12,0,.17.07.22l.12.12v.26l-.81-.47Z" style="fill:#fff"></path><path d="M373.59,75.63c0-.76.29-1.09.77-.82a1.12,1.12,0,0,1,.55.92c0,.2-.08.29-.22.21a.41.41,0,0,1-.21-.36.55.55,0,0,1,.09-.24.58.58,0,0,0-.19-.19c-.27-.15-.37.14-.37.62s.15.83.37,1a.34.34,0,0,0,.41,0l.12.28a.44.44,0,0,1-.63.13A1.74,1.74,0,0,1,373.59,75.63Z" style="fill:#fff"></path><path d="M375.32,77.41l.14,0c.07,0,.07,0,.07-.17V75c0-.16,0-.2-.11-.28l-.13-.11,0-.26.58.31,0,.07v1.36h0a.29.29,0,0,1,.45-.11,1.06,1.06,0,0,1,.45,1v1.07c0,.12,0,.17.09.23l.13.12v.26l-.81-.47V78l.1,0c.08,0,.09,0,.09-.13V77c0-.31,0-.52-.21-.63s-.3,0-.3.4v.79c0,.12,0,.17.07.23l.12.12v.26l-.8-.47Z" style="fill:#fff"></path><path d="M378.33,79.15l.16,0c.07,0,.08,0,.08-.18V77c0-.13,0-.18-.08-.25l-.16-.14v-.26l.9.52a2.14,2.14,0,0,1,1,2c0,1-.3,1.48-1.15,1l-.76-.44Zm1.48-.53a1.64,1.64,0,0,0-.72-1.52L379,77v2.42l.17.12C379.71,79.9,379.81,79.31,379.81,78.62Z" style="fill:#fff"></path><path d="M380.76,79.77c0-.81.3-1.09.73-.84a1.3,1.3,0,0,1,.57,1.16,2,2,0,0,1,0,.43l-.84-.49a.94.94,0,0,0,.37.84.34.34,0,0,0,.4,0l.13.28a.43.43,0,0,1-.64.13A1.73,1.73,0,0,1,380.76,79.77Zm.9.21a1.62,1.62,0,0,0,0-.23c0-.3-.08-.44-.21-.52s-.27.13-.28.47Z" style="fill:#fff"></path><path d="M382.57,81.14l.2.1a.92.92,0,0,0,.39.68c.14.08.22,0,.22-.15,0-.47-.8-.59-.8-1.49,0-.41.21-.6.55-.4a1,1,0,0,1,.32.32l0-.12.17.09,0,.78-.21-.14a.86.86,0,0,0-.34-.64c-.13-.08-.19,0-.19.13,0,.47.79.58.79,1.52,0,.39-.17.66-.56.44a1,1,0,0,1-.36-.36l0,.13-.16-.09Z" style="fill:#fff"></path><path d="M384.21,82.09l.21.1c.09.43.24.6.39.68s.21,0,.21-.15c0-.48-.8-.6-.8-1.49,0-.41.21-.6.55-.4a1,1,0,0,1,.32.32l0-.12.17.09,0,.78-.21-.15a.89.89,0,0,0-.33-.63c-.14-.08-.2,0-.2.13,0,.47.79.58.79,1.52,0,.38-.17.66-.56.44a1.12,1.12,0,0,1-.36-.36l0,.13-.16-.09Z" style="fill:#fff"></path><path d="M385.82,82.69c0-.8.3-1.08.74-.83a1.31,1.31,0,0,1,.56,1.16,2.86,2.86,0,0,1,0,.42l-.85-.48a.94.94,0,0,0,.37.83.33.33,0,0,0,.4,0l.13.28a.42.42,0,0,1-.63.13A1.73,1.73,0,0,1,385.82,82.69Zm.9.21a1.55,1.55,0,0,0,0-.23c0-.3-.08-.44-.21-.52s-.27.13-.28.47Z" style="fill:#fff"></path><path d="M387.6,84.5l.13,0c.08,0,.08-.05.08-.17V83.23c0-.2,0-.26-.1-.33l-.14-.11,0-.26.53.26,0,0,0,.39h0c.06-.14.18-.33.43-.18a.78.78,0,0,1,.34.67c0,.23-.08.33-.24.25a.42.42,0,0,1-.19-.34.51.51,0,0,1,.06-.23c-.2-.18-.38,0-.38.44v.77c0,.12,0,.17.07.23l.25.2v.26l-.93-.54Z" style="fill:#fff"></path><path d="M389.55,85.29V84l-.21-.12v-.29c.24.09.31,0,.34-.6l.23.09,0,.06v.75l.42.24v.34l-.42-.24v1.2c0,.2,0,.37.17.45a.25.25,0,0,0,.25,0l.09.28a.36.36,0,0,1-.47,0A1,1,0,0,1,389.55,85.29Z" style="fill:#fff"></path><path d="M390.89,85.94l.21.1c.09.43.24.61.39.69s.21,0,.21-.16c0-.47-.8-.59-.8-1.48,0-.41.21-.6.55-.41a1.08,1.08,0,0,1,.32.32l0-.12.17.1,0,.78-.21-.15a.89.89,0,0,0-.33-.63c-.14-.08-.2,0-.2.13,0,.47.79.57.79,1.52,0,.38-.17.66-.56.43a1,1,0,0,1-.36-.35l0,.13-.16-.09Z" style="fill:#fff"></path><polygon points="431.55 53.05 431.72 55.38 411.19 66.39 410.73 65.04 431.55 53.05" style="fill:#1398CC"></polygon><polygon points="431.55 53.05 431.72 55.38 411.19 66.39 410.73 65.04 431.55 53.05" style="opacity:0.35000000000000003"></polygon><polygon points="411 65.58 430.89 54.09 434.35 56.09 414.07 67.96 411 65.58" style="fill:#f5f5f5"></polygon><path d="M417.8,66.73l2,23a1.64,1.64,0,0,1-.74,1.28l-11.54,6.68a1.56,1.56,0,0,1-.6.17l7.18-29.2a1.49,1.49,0,0,0,.6-.17l.83-.48Z" style="fill:#1398CC"></path><path d="M417.8,66.73l2,23a1.64,1.64,0,0,1-.74,1.28l-11.54,6.68a1.56,1.56,0,0,1-.6.17l7.18-29.2a1.49,1.49,0,0,0,.6-.17l.83-.48Z" style="opacity:0.35000000000000003"></path><path d="M413.19,68.54l-2.06-1.76-1.51-1.3c-.15-.24-.33-.43-.24-.63l-7.07,29v0c-.1.21-.13.66.15.82L406,97.74a1.68,1.68,0,0,0,.87.17l7.18-29.2A1.6,1.6,0,0,1,413.19,68.54Z" style="fill:#1398CC"></path><path d="M413.19,68.54l-2.06-1.76-1.51-1.3c-.15-.24-.33-.43-.24-.63l-7.07,29v0c-.1.21-.13.66.15.82L406,97.74a1.68,1.68,0,0,0,.87.17l7.18-29.2A1.6,1.6,0,0,1,413.19,68.54Z" style="opacity:0.25"></path><path d="M409.62,64.63c-.41.24-.31.5,0,.85l3.57,3.06a1.59,1.59,0,0,0,1.47,0l3.14-1.81c.41-.24.48-.58.16-.76s-.1-.6-.51-.37l-3.28,1.89a.53.53,0,0,1-.49,0l-2.61-2.26a.16.16,0,0,1,0-.29l20.48-11.89-1-.56Z" style="fill:#1398CC"></path><path d="M409.62,64.63c-.41.24-.31.5,0,.85l3.57,3.06a1.59,1.59,0,0,0,1.47,0l3.14-1.81c.41-.24.48-.58.16-.76s-.1-.6-.51-.37l-3.28,1.89a.53.53,0,0,1-.49,0l-2.61-2.26a.16.16,0,0,1,0-.29l20.48-11.89-1-.56Z" style="opacity:0.15"></path><polygon points="437.48 54.17 417.91 65.47 417.91 102.7 437.48 91.39 437.48 54.17" style="fill:#1398CC"></polygon><polygon points="437.48 54.17 417.91 65.47 417.91 102.7 437.48 91.39 437.48 54.17" style="opacity:0.15"></polygon><path d="M418.54,66.09l18.94-10.87a7.91,7.91,0,0,0,4.33,2.37L423,68.41A18.81,18.81,0,0,1,418.54,66.09Z" style="fill:#f5f5f5"></path><path d="M424.85,68.35a4.09,4.09,0,0,1-3.64,0L418,66.52a1.1,1.1,0,0,1,0-2.09l18.67-10.71.79.45-18.36,10.6a.66.66,0,0,0,0,1.25l3,1.68a2.39,2.39,0,0,0,2.18,0l18.35-10.58.9.51Z" style="fill:#1398CC"></path><path d="M424.85,68.35a4.09,4.09,0,0,1-3.64,0L418,66.52a1.1,1.1,0,0,1,0-2.09l18.67-10.71.79.45-18.36,10.6a.66.66,0,0,0,0,1.25l3,1.68a2.39,2.39,0,0,0,2.18,0l18.35-10.58.9.51Z" style="fill:#fff;opacity:0.55"></path><path d="M443.51,57.63V94.86l-18.66,10.71a4,4,0,0,1-3.64,0L418,103.74a1.28,1.28,0,0,1-.75-1V65.47a1.25,1.25,0,0,0,.75,1l3.19,1.84a4.09,4.09,0,0,0,3.64,0Z" style="fill:#1398CC"></path><path d="M423,68.78a3.74,3.74,0,0,1-1.82-.43L418,66.51a1.25,1.25,0,0,1-.75-1v37.22a1.28,1.28,0,0,0,.75,1l3.19,1.83A3.74,3.74,0,0,0,423,106Z" style="opacity:0.15"></path><path d="M419.73,72.51s0,.11,0,.19v.52c0,.09,0,.16,0,.2a1.09,1.09,0,0,0,0,.26,1,1,0,0,0,.08.25,1,1,0,0,0,.13.22.78.78,0,0,0,.2.16.4.4,0,0,0,.2.07.25.25,0,0,0,.13,0,.16.16,0,0,0,.07-.09.61.61,0,0,0,.05-.12.29.29,0,0,1,0-.1s0,0,.09,0l.46.27a.1.1,0,0,1,.05.06.22.22,0,0,1,0,.1,1.51,1.51,0,0,1-.09.47.64.64,0,0,1-.24.29.56.56,0,0,1-.34.09,1,1,0,0,1-.44-.15,1.47,1.47,0,0,1-.45-.38,2.27,2.27,0,0,1-.34-.51,2.54,2.54,0,0,1-.22-.6,3.31,3.31,0,0,1-.09-.62v-1a1.94,1.94,0,0,1,.09-.52.73.73,0,0,1,.22-.35.49.49,0,0,1,.34-.12.92.92,0,0,1,.45.15,2.05,2.05,0,0,1,.44.35,2.85,2.85,0,0,1,.34.49,2.78,2.78,0,0,1,.24.56,2.93,2.93,0,0,1,.09.57.08.08,0,0,1,0,.07s0,0-.05,0l-.46-.27a.18.18,0,0,1-.09-.08,1,1,0,0,1,0-.15,1.42,1.42,0,0,0-.05-.16.73.73,0,0,0-.07-.19,1,1,0,0,0-.13-.18.8.8,0,0,0-.2-.15.37.37,0,0,0-.2-.07.26.26,0,0,0-.13.06.34.34,0,0,0-.08.16A.78.78,0,0,0,419.73,72.51Z" style="fill:#455a64"></path><path d="M421.11,78.4c0,.06,0,.13,0,.21s0,.16,0,.21a1.25,1.25,0,0,1-.08.45.58.58,0,0,1-.19.28.44.44,0,0,1-.3.1.75.75,0,0,1-.39-.13,1.66,1.66,0,0,1-.39-.32,1.9,1.9,0,0,1-.3-.44,2.82,2.82,0,0,1-.19-.51,2,2,0,0,1-.08-.54v-.42a1.4,1.4,0,0,1,.07-.44.71.71,0,0,1,.2-.29.44.44,0,0,1,.3-.1.72.72,0,0,1,.39.13,1.48,1.48,0,0,1,.39.32,2,2,0,0,1,.3.45,2.25,2.25,0,0,1,.2.51A2.49,2.49,0,0,1,421.11,78.4Zm-1.28-.35a.92.92,0,0,0,.09.38.62.62,0,0,0,.23.25c.1,0,.17.06.23,0a.33.33,0,0,0,.1-.26v-.37a.89.89,0,0,0-.1-.38.56.56,0,0,0-.23-.25.2.2,0,0,0-.23,0,.38.38,0,0,0-.09.27,1,1,0,0,0,0,.18A1.15,1.15,0,0,0,419.83,78.05Z" style="fill:#455a64"></path><path d="M421.11,82.75c0,.06,0,.13,0,.22s0,.15,0,.2a1.25,1.25,0,0,1-.08.45.58.58,0,0,1-.19.28.44.44,0,0,1-.3.1.75.75,0,0,1-.39-.13,1.66,1.66,0,0,1-.39-.32,1.9,1.9,0,0,1-.3-.44,2.82,2.82,0,0,1-.19-.51,2,2,0,0,1-.08-.54v-.42a1.4,1.4,0,0,1,.07-.44.71.71,0,0,1,.2-.29.44.44,0,0,1,.3-.1.72.72,0,0,1,.39.13,1.48,1.48,0,0,1,.39.32,2.21,2.21,0,0,1,.3.45,2.25,2.25,0,0,1,.2.51A2.49,2.49,0,0,1,421.11,82.75Zm-1.28-.35a.92.92,0,0,0,.09.38.62.62,0,0,0,.23.25.2.2,0,0,0,.23,0,.38.38,0,0,0,.1-.27v-.37a.93.93,0,0,0-.1-.38.56.56,0,0,0-.23-.25.2.2,0,0,0-.23,0,.33.33,0,0,0-.09.26,1,1,0,0,0,0,.18A1.09,1.09,0,0,0,419.83,82.4Z" style="fill:#455a64"></path><path d="M419.91,86.08l.47-.51.05,0s.05,0,.09,0l.52.3a.28.28,0,0,1,.06.08.36.36,0,0,1,0,.1v0l0,0-.63.71.75,1.71a.41.41,0,0,1,0,.07.11.11,0,0,1,0,0,.13.13,0,0,1,0,.08,0,0,0,0,1-.06,0l-.53-.31a.31.31,0,0,1-.09-.07.47.47,0,0,1,0-.1l-.57-1.3v.92a.13.13,0,0,1,0,.08.06.06,0,0,1-.07,0l-.45-.26a.13.13,0,0,1-.06-.08.27.27,0,0,1,0-.12V84a.12.12,0,0,1,0-.09.06.06,0,0,1,.06,0l.45.26a.19.19,0,0,1,.07.08.5.5,0,0,1,0,.12Z" style="fill:#455a64"></path><path d="M420.47,89.43a.12.12,0,0,1,0,.09,0,0,0,0,1-.06,0l-.45-.25a.19.19,0,0,1-.07-.08.27.27,0,0,1,0-.12v-.55a.12.12,0,0,1,0-.09.06.06,0,0,1,.07,0l.45.26a.28.28,0,0,1,.06.08.27.27,0,0,1,0,.12Zm0,3.13a.12.12,0,0,1,0,.09,0,0,0,0,1-.06,0l-.45-.25a.22.22,0,0,1-.07-.09.27.27,0,0,1,0-.12V89.66a.12.12,0,0,1,0-.09s0,0,.07,0l.45.25a.35.35,0,0,1,.06.09.27.27,0,0,1,0,.12Z" style="fill:#455a64"></path><path d="M421.1,97.28s0,.07,0,.08a0,0,0,0,1-.06,0l-.45-.26a.19.19,0,0,1-.07-.08.5.5,0,0,1,0-.12V95.53a1.07,1.07,0,0,0-.08-.41.54.54,0,0,0-.23-.28c-.11-.06-.18-.06-.23,0a.56.56,0,0,0-.07.33v1.38s0,.07,0,.08a.06.06,0,0,1-.07,0l-.45-.26a.18.18,0,0,1-.06-.08.27.27,0,0,1,0-.12V93.66a.12.12,0,0,1,0-.09,0,0,0,0,1,.06,0l.43.25a.19.19,0,0,1,.07.08.27.27,0,0,1,0,.12v.13l.07-.08a.18.18,0,0,1,.1,0h.14a.87.87,0,0,1,.19.08,1.42,1.42,0,0,1,.31.25,2,2,0,0,1,.24.37,2.16,2.16,0,0,1,.16.47,3.61,3.61,0,0,1,.05.59Z" style="fill:#455a64"></path><path d="M420.11,101.58a.27.27,0,0,0,.24,0c.06,0,.1-.09.1-.22V101l-.07.08-.09.05a.35.35,0,0,1-.14,0,.55.55,0,0,1-.19-.08,1,1,0,0,1-.3-.25,1.36,1.36,0,0,1-.25-.36,2.48,2.48,0,0,1-.17-.48,2.22,2.22,0,0,1-.07-.59,1.81,1.81,0,0,1,0-.38,1.43,1.43,0,0,1,.07-.5.58.58,0,0,1,.17-.28.37.37,0,0,1,.25-.09.81.81,0,0,1,.3.1,1.73,1.73,0,0,1,.2.15,1,1,0,0,1,.14.17.7.7,0,0,1,.1.16c0,.05.05.1.07.14v-.12a.2.2,0,0,1,0-.09.06.06,0,0,1,.07,0l.41.24A.19.19,0,0,1,421,99a.27.27,0,0,1,0,.12v2.65a1.37,1.37,0,0,1-.08.5.51.51,0,0,1-.2.27.42.42,0,0,1-.3.05,1,1,0,0,1-.39-.14,1.86,1.86,0,0,1-.45-.37,2.22,2.22,0,0,1-.27-.41,1.74,1.74,0,0,1-.14-.4,1.24,1.24,0,0,1,0-.3s0-.08,0-.09a.06.06,0,0,1,.07,0l.46.27a.27.27,0,0,1,.11.17.65.65,0,0,0,.08.17A.36.36,0,0,0,420.11,101.58Zm-.31-2.16a.62.62,0,0,0,0,.13.82.82,0,0,0,0,.14,1.05,1.05,0,0,0,.08.36.6.6,0,0,0,.24.26c.09.06.17.06.22,0a.34.34,0,0,0,.09-.22,1.93,1.93,0,0,0,0-.34,1.07,1.07,0,0,0-.09-.34.57.57,0,0,0-.22-.24c-.1-.06-.18-.07-.23,0A.42.42,0,0,0,419.8,99.42Z" style="fill:#455a64"></path></g></g></svg>