<svg xmlns="http://www.w3.org/2000/svg" viewBox="0 0 750 500"><g id="freepik--background-complete--inject-2"><polygon points="58.31 375.95 169.09 375.95 172.66 305.66 54.75 305.66 58.31 375.95" style="fill:#ebebeb"></polygon><path d="M161,337.83H63.41l-1.34-24.4H162.54ZM64.23,337h95.93l1.46-22.67H63Z" style="fill:#dbdbdb"></path><path d="M159.65,365.91H66.22l-1.1-22H161ZM67,365h91.8l1.27-20.29H66Z" style="fill:#dbdbdb"></path><path d="M123.41,328.28H102.73l-.76-5.89h22.2Zm-19.92-.87h19.16l.54-4.15H103Z" style="fill:#dbdbdb"></path><path d="M123.41,357.84H102.73L102,352h22.2ZM103.49,357h19.16l.54-4.15H103Z" style="fill:#dbdbdb"></path><polygon points="73.67 375.95 72.6 383.61 70.44 398.99 66.2 398.99 66.2 375.95 73.67 375.95" style="fill:#ebebeb"></polygon><polygon points="73.67 375.95 72.6 383.61 66.2 383.61 66.2 375.95 73.67 375.95" style="fill:#dbdbdb"></polygon><polygon points="153.73 375.95 154.8 383.61 156.97 398.99 161.2 398.99 161.2 375.95 153.73 375.95" style="fill:#ebebeb"></polygon><polygon points="153.73 375.95 154.8 383.61 161.2 383.61 161.2 375.95 153.73 375.95" style="fill:#dbdbdb"></polygon><path d="M368.45,174H283.63V89.18h84.82Zm-80.82-4h76.82V93.18H287.63Z" style="fill:#c7c7c7"></path><rect x="323.02" y="98.71" width="26.56" height="59.88" style="fill:#ebebeb"></rect><rect x="432.81" y="117.8" width="20.06" height="57.95" transform="translate(589.62 -296.06) rotate(90)" style="fill:#c7c7c7"></rect><rect x="526" y="119.32" width="25.2" height="42.16" transform="translate(1077.2 280.81) rotate(180)" style="fill:#ebebeb"></rect><path d="M482.4,174H397.58V89.18H482.4Zm-80.82-4H478.4V93.18H401.58Z" style="fill:#c7c7c7"></path><path d="M596.35,174H511.53V89.18h84.82Zm-80.82-4h76.82V93.18H515.53Z" style="fill:#c7c7c7"></path><rect x="310.7" y="116.25" width="30.68" height="30.68" style="fill:#c7c7c7"></rect><rect x="424.65" y="116.25" width="30.68" height="30.68" style="fill:#ebebeb"></rect><rect x="538.6" y="116.25" width="30.68" height="30.68" style="fill:#c7c7c7"></rect></g><g id="freepik--Floor--inject-2"><polygon points="39.68 399.06 123.51 398.82 207.34 398.73 375 398.57 542.66 398.73 626.49 398.82 710.32 399.06 626.49 399.31 542.66 399.4 375 399.56 207.34 399.4 123.51 399.31 39.68 399.06" style="fill:#263238"></polygon></g><g id="freepik--Sofa--inject-2"><rect x="282.81" y="201.4" width="314.36" height="159.53" style="fill:#1398CC"></rect><rect x="241.83" y="253.4" width="40.98" height="107.53" style="fill:#1398CC"></rect><rect x="597.17" y="253.4" width="40.98" height="107.53" style="fill:#1398CC"></rect><g style="opacity:0.1"><rect x="439.5" y="201.4" width="0.98" height="127.82"></rect><rect x="282.33" y="253.4" width="0.98" height="107.53"></rect><rect x="596.68" y="253.4" width="0.98" height="107.53"></rect><path d="M440.49,329.72H282.33V296.37H440.49Zm-157.16-1H439.49V297.37H283.33Z"></path><path d="M597.66,329.72H439.49V296.37H597.66Zm-157.17-1H596.66V297.37H440.49Z"></path></g><g style="opacity:0.1"><path d="M293.5,236.5a.68.68,0,0,0,0,1.36A.68.68,0,0,0,293.5,236.5Z"></path><path d="M294.66,319.53a.68.68,0,0,0,0,1.35A.68.68,0,0,0,294.66,319.53Z"></path><path d="M333.57,306.56a1.24,1.24,0,0,0-.1-.2.31.31,0,0,0-.53,0c0,.06-.07.13-.11.2C332.45,307.36,334,307.36,333.57,306.56Z"></path><path d="M265.83,321.23a2,2,0,0,0-.11-.2.3.3,0,0,0-.52,0,2,2,0,0,0-.11.2C264.71,322,266.21,322,265.83,321.23Z"></path><path d="M299.33,240.64a.52.52,0,0,0,0,1A.52.52,0,0,0,299.33,240.64Z"></path><path d="M511.18,257.53a.52.52,0,0,0,0,1A.52.52,0,0,0,511.18,257.53Z"></path><path d="M255.75,293.26a.52.52,0,0,0,0,1A.52.52,0,0,0,255.75,293.26Z"></path><path d="M323.8,211.72a.71.71,0,0,0-1,0,1,1,0,0,0-.25,1,.79.79,0,0,0,1.51,0A1,1,0,0,0,323.8,211.72Z"></path><path d="M300.34,315.68a.73.73,0,0,0-1,0,1,1,0,0,0-.25,1,.79.79,0,0,0,1.51,0A1,1,0,0,0,300.34,315.68Z"></path><path d="M568.72,321.33a.68.68,0,0,0,0-1.36A.68.68,0,0,0,568.72,321.33Z"></path><path d="M428,322.68a.68.68,0,0,0,0-1.35A.68.68,0,0,0,428,322.68Z"></path><path d="M564.81,213.52a.68.68,0,0,0,0-1.36A.68.68,0,0,0,564.81,213.52Z"></path><path d="M394.25,232.1a.68.68,0,0,0,0-1.36A.68.68,0,0,0,394.25,232.1Z"></path><path d="M518.65,251.27a1.24,1.24,0,0,0,.1.2.31.31,0,0,0,.53,0,1.24,1.24,0,0,0,.1-.2C519.77,250.46,518.26,250.46,518.65,251.27Z"></path><path d="M457.43,316.28l.11.2a.31.31,0,0,0,.53,0,1.86,1.86,0,0,0,.1-.2C458.56,315.47,457.05,315.47,457.43,316.28Z"></path><path d="M619.92,304a2.12,2.12,0,0,0,.11.21.31.31,0,0,0,.53,0l.1-.21C621.05,303.19,619.54,303.19,619.92,304Z"></path><path d="M562.88,317.19a.52.52,0,0,0,0-1A.52.52,0,0,0,562.88,317.19Z"></path><path d="M606.47,264.56a.52.52,0,0,0,0-1A.52.52,0,0,0,606.47,264.56Z"></path><path d="M610.17,334.07a.52.52,0,0,0,0-1A.52.52,0,0,0,610.17,334.07Z"></path><path d="M528.42,346.11a.71.71,0,0,0,1,0,1,1,0,0,0,.25-1,.79.79,0,0,0-1.51,0A1,1,0,0,0,528.42,346.11Z"></path><path d="M561.88,242.14a.71.71,0,0,0,1,0,1,1,0,0,0,.25-1,.79.79,0,0,0-1.51,0A1,1,0,0,0,561.88,242.14Z"></path><path d="M373.55,275.39a.71.71,0,0,0,1,0,1,1,0,0,0,.25-1,.79.79,0,0,0-1.51,0A1,1,0,0,0,373.55,275.39Z"></path><path d="M624,297.25a.74.74,0,0,0,1,0,1,1,0,0,0,.24-1,.78.78,0,0,0-1.5,0A1,1,0,0,0,624,297.25Z"></path></g><path d="M283.3,328.81a345.29,345.29,0,0,0,78.05,9.34,377,377,0,0,0,79.13-8.93Z" style="opacity:0.1"></path><path d="M440,328.81a345.29,345.29,0,0,0,78,9.34,377,377,0,0,0,79.13-8.93Z" style="opacity:0.1"></path><rect x="241.83" y="351.48" width="396.32" height="9.45" style="fill:#37474f"></rect><polygon points="296.73 360.93 286.31 382.27 275.84 403.71 266.73 403.71 270.11 382.27 273.48 360.93 296.73 360.93" style="fill:#37474f"></polygon><polygon points="273.48 360.93 296.73 360.93 290.41 373.87 271.44 373.87 273.48 360.93" style="fill:#263238"></polygon><polygon points="609.36 403.71 600.24 403.71 589.77 382.27 579.35 360.93 602.6 360.93 605.97 382.27 609.36 403.71" style="fill:#37474f"></polygon><polygon points="604.64 373.87 585.67 373.87 579.35 360.93 602.6 360.93 604.64 373.87" style="fill:#263238"></polygon></g><g id="freepik--Shadow--inject-2"><ellipse cx="375" cy="453.33" rx="277.4" ry="19.62" style="fill:#ebebeb"></ellipse></g><g id="freepik--Lamp--inject-2"><rect x="641.02" y="393.26" width="51.08" height="5.81" style="fill:#455a64"></rect><rect x="663.54" y="165.57" width="6.05" height="227.69" style="fill:#455a64"></rect><rect x="663.54" y="165.57" width="6.05" height="30.67" style="fill:#263238"></rect><polygon points="698.6 183.32 634.52 183.32 639.18 168.02 639.35 167.48 652.9 122.95 680.23 122.95 693.79 167.49 693.79 167.5 693.94 168 698.6 183.32" style="fill:#1398CC"></polygon><path d="M655.16,133.24a.43.43,0,0,1-.43.43.43.43,0,1,1,0-.86A.43.43,0,0,1,655.16,133.24Zm7.46-.43a.43.43,0,1,0,.44.43A.43.43,0,0,0,662.62,132.81Zm7.9,0a.43.43,0,1,0,.43.43A.44.44,0,0,0,670.52,132.81Zm7.89,0a.43.43,0,0,0,0,.86.43.43,0,0,0,0-.86Zm-19.73-5.53a.43.43,0,0,0-.43.43.43.43,0,0,0,.86,0A.43.43,0,0,0,658.68,127.28Zm7.89,0a.43.43,0,0,0-.43.43.43.43,0,1,0,.86,0A.43.43,0,0,0,666.57,127.28Zm7.89,0a.43.43,0,0,0-.43.43.43.43,0,1,0,.86,0A.43.43,0,0,0,674.46,127.28Zm-27.62,17a.44.44,0,0,0-.43.43.43.43,0,0,0,.43.43.43.43,0,0,0,.43-.43A.43.43,0,0,0,646.84,144.28Zm7.89,0a.44.44,0,0,0-.43.43.43.43,0,0,0,.43.43.43.43,0,0,0,.43-.43A.43.43,0,0,0,654.73,144.28Zm7.89,0a.44.44,0,0,0-.43.43.44.44,0,0,0,.87,0A.44.44,0,0,0,662.62,144.28Zm7.9,0a.44.44,0,0,0-.44.43.44.44,0,0,0,.87,0A.44.44,0,0,0,670.52,144.28Zm7.89,0a.43.43,0,0,0-.43.43.43.43,0,0,0,.43.43.43.43,0,0,0,.43-.43A.44.44,0,0,0,678.41,144.28Zm7.89,0a.43.43,0,0,0-.43.43.43.43,0,0,0,.43.43.43.43,0,0,0,.43-.43A.44.44,0,0,0,686.3,144.28Zm-35.51-5.52a.43.43,0,1,0,.43.43A.43.43,0,0,0,650.79,138.76Zm7.89,0a.43.43,0,1,0,.43.43A.43.43,0,0,0,658.68,138.76Zm7.89,0a.43.43,0,1,0,.43.43A.43.43,0,0,0,666.57,138.76Zm7.89,0a.43.43,0,1,0,.43.43A.43.43,0,0,0,674.46,138.76Zm7.89,0a.43.43,0,1,0,.43.43A.43.43,0,0,0,682.35,138.76Zm-35.51,17a.43.43,0,0,0,0,.86.43.43,0,0,0,0-.86Zm7.89,0a.43.43,0,0,0,0,.86.43.43,0,0,0,0-.86Zm7.89,0a.43.43,0,1,0,.44.43A.43.43,0,0,0,662.62,155.76Zm7.9,0a.43.43,0,1,0,.43.43A.44.44,0,0,0,670.52,155.76Zm7.89,0a.43.43,0,1,0,0,.86.43.43,0,1,0,0-.86Zm7.89,0a.43.43,0,1,0,0,.86.43.43,0,1,0,0-.86Zm-35.51-5.53a.43.43,0,1,0,.43.43A.43.43,0,0,0,650.79,150.23Zm7.89,0a.43.43,0,1,0,.43.43A.43.43,0,0,0,658.68,150.23Zm7.89,0a.43.43,0,1,0,.43.43A.43.43,0,0,0,666.57,150.23Zm7.89,0a.43.43,0,1,0,.43.43A.43.43,0,0,0,674.46,150.23Zm7.89,0a.43.43,0,1,0,.43.43A.43.43,0,0,0,682.35,150.23Zm-43,17.25-.17.54a.4.4,0,0,0,.21-.36A.39.39,0,0,0,639.35,167.48Zm7.49-.25a.43.43,0,0,0,0,.86.43.43,0,0,0,0-.86Zm7.89,0a.43.43,0,0,0,0,.86.43.43,0,0,0,0-.86Zm7.89,0a.43.43,0,1,0,.44.43A.43.43,0,0,0,662.62,167.23Zm7.9,0a.43.43,0,1,0,.43.43A.44.44,0,0,0,670.52,167.23Zm7.89,0a.43.43,0,1,0,0,.86.43.43,0,1,0,0-.86Zm7.89,0a.43.43,0,1,0,0,.86.43.43,0,1,0,0-.86Zm7.49.27a.41.41,0,0,0,0,.16.39.39,0,0,0,.18.34Zm-50.89-5.8a.44.44,0,1,0,.43.44A.44.44,0,0,0,642.9,161.7Zm7.89,0a.44.44,0,1,0,.43.44A.44.44,0,0,0,650.79,161.7Zm7.89,0a.44.44,0,1,0,.43.44A.44.44,0,0,0,658.68,161.7Zm7.89,0a.44.44,0,1,0,.43.44A.44.44,0,0,0,666.57,161.7Zm7.89,0a.44.44,0,1,0,.43.44A.44.44,0,0,0,674.46,161.7Zm7.89,0a.44.44,0,1,0,.43.44A.44.44,0,0,0,682.35,161.7Zm7.89,0a.44.44,0,1,0,.43.44A.44.44,0,0,0,690.24,161.7ZM639,178.7a.44.44,0,1,0,.43.44A.44.44,0,0,0,639,178.7Zm7.89,0a.44.44,0,0,0,0,.87.44.44,0,0,0,0-.87Zm7.89,0a.44.44,0,0,0,0,.87.44.44,0,0,0,0-.87Zm7.89,0a.44.44,0,1,0,.44.44A.44.44,0,0,0,662.62,178.7Zm7.9,0a.44.44,0,1,0,.43.44A.44.44,0,0,0,670.52,178.7Zm7.89,0a.44.44,0,0,0,0,.87.44.44,0,0,0,0-.87Zm7.89,0a.44.44,0,0,0,0,.87.44.44,0,0,0,0-.87Zm7.89,0a.44.44,0,1,0,.43.44A.44.44,0,0,0,694.19,178.7Zm-51.29-5.52a.43.43,0,1,0,.43.43A.43.43,0,0,0,642.9,173.18Zm7.89,0a.43.43,0,1,0,.43.43A.43.43,0,0,0,650.79,173.18Zm7.89,0a.43.43,0,1,0,.43.43A.43.43,0,0,0,658.68,173.18Zm7.89,0a.43.43,0,1,0,.43.43A.43.43,0,0,0,666.57,173.18Zm7.89,0a.43.43,0,1,0,.43.43A.43.43,0,0,0,674.46,173.18Zm7.89,0a.43.43,0,1,0,.43.43A.43.43,0,0,0,682.35,173.18Zm7.89,0a.43.43,0,1,0,.43.43A.43.43,0,0,0,690.24,173.18Z" style="fill:#fff"></path></g><g id="freepik--Carpet--inject-2"><polygon points="691.78 464.63 401.31 464.63 411.31 413.43 618.78 413.43 691.78 464.63" style="fill:#1398CC"></polygon><g style="opacity:0.1"><polygon points="421.81 413.43 415.94 464.63 414.92 464.63 420.79 413.43 421.81 413.43"></polygon><polygon points="435.27 413.43 431.29 464.63 430.29 464.63 434.28 413.43 435.27 413.43"></polygon><polygon points="448.78 413.43 447.61 464.63 446.61 464.63 447.78 413.43 448.78 413.43"></polygon><polygon points="464.91 464.63 463.9 464.63 461.32 413.43 462.33 413.43 464.91 464.63"></polygon><polygon points="482.2 464.63 481.2 464.63 474.86 413.43 475.86 413.43 482.2 464.63"></polygon><polygon points="500.47 464.63 499.45 464.63 488.42 413.43 489.44 413.43 500.47 464.63"></polygon><polygon points="519.72 464.63 518.67 464.63 502 413.43 503.05 413.43 519.72 464.63"></polygon><polygon points="539.95 464.63 538.85 464.63 515.61 413.43 516.71 413.43 539.95 464.63"></polygon><polygon points="560.18 464.63 559.03 464.63 529.21 413.43 530.36 413.43 560.18 464.63"></polygon><polygon points="581.39 464.63 580.15 464.63 542.83 413.43 544.07 413.43 581.39 464.63"></polygon><polygon points="603.59 464.63 602.25 464.63 556.47 413.43 557.8 413.43 603.59 464.63"></polygon><polygon points="626.76 464.63 625.29 464.63 570.13 413.43 571.6 413.43 626.76 464.63"></polygon><polygon points="651.92 464.63 650.29 464.63 584.79 413.43 586.41 413.43 651.92 464.63"></polygon><polygon points="673.19 464.63 671.48 464.63 600.36 413.43 602.07 413.43 673.19 464.63"></polygon></g><path d="M459.29,464.63h-58l10-51.2h29.16C445.79,428.28,454.87,453.43,459.29,464.63Z" style="opacity:0.1"></path><path d="M616.26,413.76a63.93,63.93,0,0,1,16,0,63.93,63.93,0,0,1-16,0Z" style="fill:#1398CC"></path><path d="M621.42,417.36a64,64,0,0,1,16,0,64,64,0,0,1-16,0Z" style="fill:#1398CC"></path><path d="M626.59,421a64,64,0,0,1,16,0,64,64,0,0,1-16,0Z" style="fill:#1398CC"></path><path d="M631.75,424.56a64,64,0,0,1,16,0,64,64,0,0,1-16,0Z" style="fill:#1398CC"></path><path d="M636.92,428.16a64,64,0,0,1,16,0,64,64,0,0,1-16,0Z" style="fill:#1398CC"></path><path d="M642.09,431.76a65.22,65.22,0,0,1,16,0,63.93,63.93,0,0,1-16,0Z" style="fill:#1398CC"></path><path d="M647.25,435.37a64,64,0,0,1,16,0,64,64,0,0,1-16,0Z" style="fill:#1398CC"></path><path d="M652.42,439a64,64,0,0,1,16,0,64,64,0,0,1-16,0Z" style="fill:#1398CC"></path><path d="M657.58,442.57a64,64,0,0,1,16,0,64,64,0,0,1-16,0Z" style="fill:#1398CC"></path><path d="M662.75,446.17a64,64,0,0,1,16,0,64,64,0,0,1-16,0Z" style="fill:#1398CC"></path><path d="M667.92,449.77a63.93,63.93,0,0,1,16,0,63.93,63.93,0,0,1-16,0Z" style="fill:#1398CC"></path><path d="M673.08,453.37a64,64,0,0,1,16,0,64,64,0,0,1-16,0Z" style="fill:#1398CC"></path><path d="M678.25,457a56.26,56.26,0,0,1,8-.5,55,55,0,0,1,8,.5,64,64,0,0,1-16,0Z" style="fill:#1398CC"></path><path d="M683.41,460.57a58,58,0,0,1,8-.5,54.82,54.82,0,0,1,8,.5,64,64,0,0,1-16,0Z" style="fill:#1398CC"></path><path d="M688.58,464.17a57.78,57.78,0,0,1,8-.5,55,55,0,0,1,8,.5,64,64,0,0,1-16,0Z" style="fill:#1398CC"></path><path d="M378.88,393.89c.88-5.62,13.08-16.42,22.83-16.42s22.61,6.76,24.17,10.8,9.65,61,9,64.94S416,464.05,403.39,464.62s-31.58-4.42-32.29-9.84S378.88,393.89,378.88,393.89Z" style="fill:#1398CC"></path><path d="M403,451.76c1.1,0,2.2-.1,3.29-.24a10.9,10.9,0,0,0,1.61-.31,2.67,2.67,0,0,0,.75-.33.49.49,0,0,0,.22-.66,2.26,2.26,0,0,0-1.45-.64,14.92,14.92,0,0,0-1.64-.16c-1.09-.05-2.2-.05-3.3,0a14.13,14.13,0,0,0-3.23.51,7.13,7.13,0,0,0-1.51.61,1.82,1.82,0,0,0-1,1.15,1.4,1.4,0,0,0,.7,1.29,5.43,5.43,0,0,0,1.44.73,12.47,12.47,0,0,0,3.21.6,19.69,19.69,0,0,0,6.48-.75,9.24,9.24,0,0,0,2.93-1.36,2.57,2.57,0,0,0,.93-1.2,1.48,1.48,0,0,0-.25-1.4,5.36,5.36,0,0,0-2.73-1.53,19.13,19.13,0,0,0-3.21-.6,25.41,25.41,0,0,0-6.52.12,23.29,23.29,0,0,0-6.25,1.83,5.87,5.87,0,0,0-2.47,1.87c-.54.85.27,1.82,1.09,2.43a15.63,15.63,0,0,0,5.94,2.47,24.81,24.81,0,0,0,6.49.53,36.21,36.21,0,0,0,6.48-.88,18.15,18.15,0,0,0,6-2.4,4.22,4.22,0,0,0,1.87-2.36,2.64,2.64,0,0,0-1-2.63,12.93,12.93,0,0,0-5.93-2.28,41.91,41.91,0,0,0-6.52-.58,53.22,53.22,0,0,0-6.56.25,41.36,41.36,0,0,0-6.44,1.14,20.08,20.08,0,0,0-6,2.47,4,4,0,0,0-1.87,2.26,3,3,0,0,0,1.2,2.52,15.08,15.08,0,0,0,5.66,2.94,37.33,37.33,0,0,0,12.93,1.38,54.11,54.11,0,0,0,12.89-2.2,24.11,24.11,0,0,0,5.91-2.61,5.73,5.73,0,0,0,2.1-2.14,2.31,2.31,0,0,0-.7-2.52,13.65,13.65,0,0,0-5.53-3,37,37,0,0,0-6.36-1.4,63.53,63.53,0,0,0-13.08-.27,54.78,54.78,0,0,0-12.86,2.32,22.72,22.72,0,0,0-5.84,2.71,6,6,0,0,0-2.09,2.18,2.53,2.53,0,0,0,.58,2.6,13.72,13.72,0,0,0,5.17,3.63,32.2,32.2,0,0,0,6.2,2,56.83,56.83,0,0,0,13,1.12,88.18,88.18,0,0,0,13.09-1.15,53.64,53.64,0,0,0,6.38-1.48,26.31,26.31,0,0,0,6-2.52,9,9,0,0,0,2.4-2,2.66,2.66,0,0,0,.43-2.77c-.78-1.91-2.62-3.29-4.47-4.35a35.38,35.38,0,0,0-12.46-3.7,76.8,76.8,0,0,0-13.13-.46A95.52,95.52,0,0,0,389,443.76c-4.29.82-8.62,1.91-12.35,4.18a12,12,0,0,0-2.51,2,5.46,5.46,0,0,0-1.47,2.74,3,3,0,0,0,.93,2.79,11.72,11.72,0,0,0,2.53,2,42,42,0,0,0,12.34,4.34,66.85,66.85,0,0,0,13.09,1.36,99.77,99.77,0,0,0,13.15-.95,62.91,62.91,0,0,0,12.84-3,62.83,62.83,0,0,1-12.82,3.13,101.83,101.83,0,0,1-13.17,1.08,66.84,66.84,0,0,1-13.16-1.25,41.92,41.92,0,0,1-12.52-4.28,11.72,11.72,0,0,1-2.66-2.06,4.75,4.75,0,0,1-.94-1.46,3.12,3.12,0,0,1-.12-1.76,6.11,6.11,0,0,1,1.59-3,12.63,12.63,0,0,1,2.61-2.12c3.84-2.34,8.21-3.44,12.53-4.29a95.51,95.51,0,0,1,13.17-1.4,76.08,76.08,0,0,1,13.24.42A36.09,36.09,0,0,1,428,446a15.08,15.08,0,0,1,2.76,1.94,7.7,7.7,0,0,1,2,2.78,3.65,3.65,0,0,1,.23,1.8,4,4,0,0,1-.74,1.66,9.49,9.49,0,0,1-2.61,2.22,26.82,26.82,0,0,1-6.14,2.63,55.87,55.87,0,0,1-6.48,1.52,89.85,89.85,0,0,1-13.2,1.21,57.75,57.75,0,0,1-13.24-1.11,32.69,32.69,0,0,1-6.37-2,14.51,14.51,0,0,1-5.54-3.9,4.94,4.94,0,0,1-.84-1.61,2.71,2.71,0,0,1,.15-1.92,6.82,6.82,0,0,1,2.39-2.57,23.57,23.57,0,0,1,6.08-2.85,55.23,55.23,0,0,1,13.08-2.41,64.91,64.91,0,0,1,13.29.32,37.66,37.66,0,0,1,6.52,1.46,14.49,14.49,0,0,1,5.91,3.31,4.32,4.32,0,0,1,1,1.57,2.76,2.76,0,0,1-.1,1.92,6.34,6.34,0,0,1-2.44,2.53,24.64,24.64,0,0,1-6.14,2.7,54.57,54.57,0,0,1-13.11,2.2,38.29,38.29,0,0,1-13.2-1.46,16.05,16.05,0,0,1-6-3.13,5.35,5.35,0,0,1-1.1-1.38,2.85,2.85,0,0,1-.32-1.85,4.77,4.77,0,0,1,2.2-2.73,20.72,20.72,0,0,1,6.19-2.55,43.08,43.08,0,0,1,6.56-1.14,56.68,56.68,0,0,1,6.64-.24,44.64,44.64,0,0,1,6.62.61,21.51,21.51,0,0,1,3.25.83,9.06,9.06,0,0,1,3,1.63,3.87,3.87,0,0,1,1,1.44,3,3,0,0,1,.12,1.81,4.83,4.83,0,0,1-2.12,2.73,18.71,18.71,0,0,1-6.21,2.47,35.85,35.85,0,0,1-6.59.87,24.7,24.7,0,0,1-6.64-.56,16.28,16.28,0,0,1-6.15-2.58,4.75,4.75,0,0,1-1.19-1.29,2.06,2.06,0,0,1-.27-.9,1.66,1.66,0,0,1,.24-.93,6.41,6.41,0,0,1,2.7-2.08,23.31,23.31,0,0,1,6.4-1.84,26,26,0,0,1,6.65-.06,19.29,19.29,0,0,1,3.27.64,5.72,5.72,0,0,1,2.92,1.69,1.86,1.86,0,0,1,.29,1.72,3,3,0,0,1-1.07,1.37,9.48,9.48,0,0,1-3,1.38,20.08,20.08,0,0,1-6.59.71,13,13,0,0,1-3.26-.65,5.41,5.41,0,0,1-1.49-.77,1.6,1.6,0,0,1-.76-1.48,2,2,0,0,1,1.09-1.26,6.84,6.84,0,0,1,1.55-.61,14.06,14.06,0,0,1,3.28-.49c1.11,0,2.2,0,3.31.06a15,15,0,0,1,1.64.18,2.32,2.32,0,0,1,1.49.68.55.55,0,0,1-.24.74,3,3,0,0,1-.76.32,10.15,10.15,0,0,1-1.63.3C405.23,451.68,404.13,451.73,403,451.76Z" style="opacity:0.1"></path><g style="opacity:0.1"><path d="M381.6,388.78l-7.31,60.86-1-.14,7.09-59.07A18.15,18.15,0,0,1,381.6,388.78Z"></path><path d="M391.79,380.41l-4.14,63-1-.06,4.1-62.37C391.09,380.79,391.44,380.6,391.79,380.41Z"></path><path d="M432.67,449.5l-1.08-.64-7.56-63a12.61,12.61,0,0,1,1.15,1.21Z"></path><path d="M418.86,442.6l-1,.06-3.7-62.48,1,.42Z"></path><path d="M404.29,377.62,403.36,442l-1,0,.93-64.45C403.62,377.55,404,377.58,404.29,377.62Z"></path></g></g></svg>