<svg xmlns="http://www.w3.org/2000/svg" viewBox="0 0 500 500"><g id="freepik--background-simple--inject-1"><path d="M390,96.07c-58.49-28.18-107.46,14-119.38,50s-34.4,51-61.51,38.18S135.82,118,77.53,162s28.36,143.59,149.53,171c66.22,15,159.49,26.11,194.65-61.38C442.67,219.42,437.13,118.78,390,96.07Z" style="fill:#1398CC"></path><g style="opacity:0.8;isolation:isolate"><path d="M390,96.07c-58.49-28.18-107.46,14-119.38,50s-34.4,51-61.51,38.18S135.82,118,77.53,162s28.36,143.59,149.53,171c66.22,15,159.49,26.11,194.65-61.38C442.67,219.42,437.13,118.78,390,96.07Z" style="fill:#fff"></path></g></g><g id="freepik--Shadow--inject-1"><ellipse id="freepik--path--inject-1" cx="248.06" cy="416.24" rx="193.89" ry="11.32" style="fill:#f5f5f5"></ellipse></g><g id="freepik--Table--inject-1"><rect x="310.8" y="186.47" width="39.35" height="53.81" transform="translate(-39.38 79.38) rotate(-12.93)" style="fill:#263238"></rect><rect x="310.8" y="186.47" width="39.35" height="53.81" transform="translate(-39.38 79.38) rotate(-12.93)" style="fill:#fff;opacity:0.8;isolation:isolate"></rect><rect x="310.91" y="194.63" width="30.91" height="2.73" transform="translate(-35.59 78.02) rotate(-12.93)" style="fill:#fff"></rect><rect x="312.23" y="200.4" width="30.91" height="2.73" transform="translate(-36.85 78.47) rotate(-12.93)" style="fill:#fff"></rect><rect x="313.56" y="206.17" width="30.91" height="2.73" transform="translate(-38.1 78.91) rotate(-12.93)" style="fill:#fff"></rect><polygon points="338.65 183.89 344.82 187.76 339.8 188.91 338.65 183.89" style="fill:#fff"></polygon><polygon points="339.92 269.48 314.99 269.48 314.99 225.79 339.92 202.26 339.92 269.48" style="fill:#1398CC"></polygon><rect x="339.92" y="202.26" width="20.26" height="67.22" style="fill:#1398CC"></rect><rect x="339.92" y="202.26" width="20.26" height="67.22" style="fill:#fff;opacity:0.4;isolation:isolate"></rect><rect x="126.99" y="269.48" width="256.1" height="10.91" style="fill:#1398CC"></rect><rect x="126.99" y="269.48" width="256.1" height="10.91" style="fill:#fff;opacity:0.6000000000000001;isolation:isolate"></rect><rect x="141.15" y="280.39" width="8.99" height="141.72" style="fill:#1398CC"></rect><rect x="186.36" y="280.39" width="8.99" height="141.72" style="fill:#1398CC"></rect><rect x="322.96" y="280.39" width="8.99" height="141.72" style="fill:#1398CC"></rect><rect x="365.3" y="280.39" width="8.99" height="141.72" style="fill:#1398CC"></rect><rect x="141.15" y="280.39" width="8.99" height="141.72" style="fill:#fff;opacity:0.4;isolation:isolate"></rect><rect x="186.36" y="280.39" width="8.99" height="141.72" style="fill:#fff;opacity:0.4;isolation:isolate"></rect><rect x="322.96" y="280.39" width="8.99" height="141.72" style="fill:#fff;opacity:0.4;isolation:isolate"></rect><rect x="365.3" y="280.39" width="8.99" height="141.72" style="fill:#fff;opacity:0.4;isolation:isolate"></rect><rect x="141.15" y="280.39" width="8.99" height="26.68" style="opacity:0.2"></rect><rect x="186.36" y="280.39" width="8.99" height="26.68" style="opacity:0.2"></rect><rect x="322.96" y="280.39" width="8.99" height="26.68" style="opacity:0.2"></rect><rect x="365.3" y="280.39" width="8.99" height="26.68" style="opacity:0.2"></rect><rect x="133.88" y="280.39" width="240.75" height="17.23" style="fill:#1398CC"></rect><rect x="133.88" y="280.39" width="240.75" height="17.23" style="fill:#fff;opacity:0.4;isolation:isolate"></rect><rect x="133.88" y="280.39" width="65.88" height="17.23" style="opacity:0.1"></rect><path d="M319.34,263.58v3.9c0,1.18-2,2-3.17,2H224.93c-1.17,0-3-.82-3-2v-3.9Z" style="fill:#263238"></path><path d="M319.34,263.58v3.9c0,1.18-2,2-3.17,2H224.93c-1.17,0-3-.82-3-2v-3.9Z" style="fill:#fff;opacity:0.6000000000000001;isolation:isolate"></path><path d="M319.34,263.58v3.9c0,1.18-2,2-3.17,2H256c-1.17,0-3.09-.82-3.09-2v-3.9Z" style="opacity:0.2;isolation:isolate"></path><path d="M334,215.61,323.11,265a3.85,3.85,0,0,1-3.53,3H260.25A2.58,2.58,0,0,1,258,264.7l10.85-48.9a3.4,3.4,0,0,1,3.53-2.42h59.33C333.32,213.38,334.32,214,334,215.61Z" style="fill:#263238"></path><path d="M334,215.61,323.11,265a3.85,3.85,0,0,1-3.53,3H260.25A2.58,2.58,0,0,1,258,264.7l10.85-48.9a3.4,3.4,0,0,1,3.53-2.42h59.33C333.32,213.38,334.32,214,334,215.61Z" style="fill:#fff;opacity:0.6000000000000001;isolation:isolate"></path><path d="M334,215.61,323.11,265a3.85,3.85,0,0,1-3.53,3H262.27A2.58,2.58,0,0,1,260,264.7l10.86-48.9a3.38,3.38,0,0,1,3.53-2.42h57.31C333.32,213.38,334.32,214,334,215.61Z" style="fill:#fff;opacity:0.4;isolation:isolate"></path><path d="M299.07,247.29c2.76,0,5.59-3,6.32-6.61s-.95-6.63-3.72-6.63a4.33,4.33,0,0,0-1.54.29,8.48,8.48,0,0,1-4.71,6,1.46,1.46,0,0,0-.07.3C294.62,244.32,296.29,247.29,299.07,247.29Z" style="opacity:0.2;isolation:isolate"></path><rect x="154.49" y="251.86" width="55.36" height="17.62" style="fill:#263238"></rect><rect x="154.49" y="251.86" width="55.36" height="17.62" style="fill:#fff;opacity:0.30000000000000004;isolation:isolate"></rect><rect x="152.72" y="266.03" width="58.47" height="3.45" style="fill:#263238"></rect><rect x="152.72" y="266.03" width="58.47" height="3.45" style="fill:#fff;opacity:0.8;isolation:isolate"></rect><rect x="152.72" y="260.73" width="58.47" height="3.45" style="fill:#263238"></rect><rect x="152.72" y="260.73" width="58.47" height="3.45" style="fill:#fff;opacity:0.8;isolation:isolate"></rect><rect x="152.72" y="255.43" width="58.47" height="3.45" style="fill:#263238"></rect><rect x="152.72" y="255.43" width="58.47" height="3.45" style="fill:#fff;opacity:0.8;isolation:isolate"></rect><rect x="152.72" y="250.14" width="58.47" height="3.45" style="fill:#263238"></rect><rect x="152.72" y="250.14" width="58.47" height="3.45" style="fill:#fff;opacity:0.8;isolation:isolate"></rect><rect x="160.05" y="247.11" width="55.75" height="3.03" style="fill:#263238"></rect><rect x="160.05" y="247.11" width="55.75" height="3.03" style="fill:#fff;opacity:0.30000000000000004;isolation:isolate"></rect><rect x="158.21" y="244.84" width="58.47" height="3.45" style="fill:#263238"></rect><rect x="158.21" y="244.84" width="58.47" height="3.45" style="fill:#fff;opacity:0.8;isolation:isolate"></rect><path d="M237.57,268.67h0a7.8,7.8,0,0,1-7.8-7.8v-7.8h15.59v7.8A7.8,7.8,0,0,1,237.57,268.67Z" style="fill:#1398CC"></path><path d="M233.51,265.2h-3a5.26,5.26,0,0,1,0-10.52h3Zm-3-8.52a3.26,3.26,0,0,0,0,6.52h1v-6.52Z" style="fill:#1398CC"></path><rect x="227.31" y="267.29" width="20.51" height="2.19" style="fill:#1398CC"></rect><path d="M240,243.57a3.42,3.42,0,0,0-.94,1.68,2.16,2.16,0,0,0,.33,1.7,2.9,2.9,0,0,1,.52,2.23,2.45,2.45,0,0,1-1.42,1.71l-.07-.08A4.91,4.91,0,0,0,239,249a3.74,3.74,0,0,0-.23-1.69,2.8,2.8,0,0,1-.11-2.23,3.64,3.64,0,0,1,1.36-1.61Z" style="fill:#1398CC"></path><path d="M234.75,248a3.37,3.37,0,0,0,.94-1.68,2.21,2.21,0,0,0-.33-1.7,2.9,2.9,0,0,1-.52-2.23,2.45,2.45,0,0,1,1.42-1.71l.06.08a5.14,5.14,0,0,0-.49,1.79,3.71,3.71,0,0,0,.23,1.69,2.88,2.88,0,0,1,.11,2.23,3.71,3.71,0,0,1-1.36,1.61Z" style="fill:#1398CC"></path><path d="M240,243.57a3.42,3.42,0,0,0-.94,1.68,2.16,2.16,0,0,0,.33,1.7,2.9,2.9,0,0,1,.52,2.23,2.45,2.45,0,0,1-1.42,1.71l-.07-.08A4.91,4.91,0,0,0,239,249a3.74,3.74,0,0,0-.23-1.69,2.8,2.8,0,0,1-.11-2.23,3.64,3.64,0,0,1,1.36-1.61Z" style="fill:#fff;opacity:0.6000000000000001;isolation:isolate"></path><path d="M234.75,248a3.37,3.37,0,0,0,.94-1.68,2.21,2.21,0,0,0-.33-1.7,2.9,2.9,0,0,1-.52-2.23,2.45,2.45,0,0,1,1.42-1.71l.06.08a5.14,5.14,0,0,0-.49,1.79,3.71,3.71,0,0,0,.23,1.69,2.88,2.88,0,0,1,.11,2.23,3.71,3.71,0,0,1-1.36,1.61Z" style="fill:#fff;opacity:0.6000000000000001;isolation:isolate"></path><path d="M137,254.93c.07-.12,2.51-1,2.51-1l3.7,1.8.62,3.37,1.48,1.95-3.93,4.59L135,264.42Z" style="fill:#263238"></path><path d="M137,254.93c.07-.12,2.51-1,2.51-1l3.7,1.8.62,3.37,1.48,1.95-3.93,4.59L135,264.42Z" style="fill:#fff;opacity:0.8;isolation:isolate"></path><path d="M138.66,259.68l-1.53,1.87L141,262.9l2.28,2.77-3.1,3.81-2.93-.9L129.88,266s.87-2.58,1-3.05,5.15-4.5,5.15-4.5Z" style="fill:#263238"></path><path d="M138.66,259.68l-1.53,1.87L141,262.9l2.28,2.77-3.1,3.81-2.93-.9L129.88,266s.87-2.58,1-3.05,5.15-4.5,5.15-4.5Z" style="fill:#fff;opacity:0.5;isolation:isolate"></path><path d="M127.81,261.68c0-.23-.41-3.84-.41-3.84l2.87-3.87,3.46-.08,3.13-.06,3,3.35-1.18,2.5L136,258.46l-4.55,1.1Z" style="fill:#263238"></path><path d="M127.81,261.68c0-.23-.41-3.84-.41-3.84l2.87-3.87,3.46-.08,3.13-.06,3,3.35-1.18,2.5L136,258.46l-4.55,1.1Z" style="fill:#fff;opacity:0.6000000000000001;isolation:isolate"></path><path d="M132,256.18l4,2.28-4.11,5.08,5.66,2.62-1.35-3.85,2.86,1.37,1.68,2.43-.65,3.48-4.28.27s-5.94.39-6.27-.31-3.21-4.61-3.21-4.61l-.43-2.89,4.77-2.88Z" style="fill:#263238"></path><path d="M132,256.18l4,2.28-4.11,5.08,5.66,2.62-1.35-3.85,2.86,1.37,1.68,2.43-.65,3.48-4.28.27s-5.94.39-6.27-.31-3.21-4.61-3.21-4.61l-.43-2.89,4.77-2.88Z" style="fill:#fff;opacity:0.8;isolation:isolate"></path><path d="M192.76,238.44c0-.05-.26-1.49-.26-1.49l1.42-1.8,1.92.06,1.24-.57,2,2.7-1.41,3.34Z" style="fill:#263238"></path><path d="M192.76,238.44c0-.05-.26-1.49-.26-1.49l1.42-1.8,1.92.06,1.24-.57,2,2.7-1.41,3.34Z" style="fill:#fff;opacity:0.8;isolation:isolate"></path><path d="M195.55,238.12l.84,1.06,1.2-1.93,1.79-.91,1.7,2.15-.84,1.49L198,243.67s-1.3-.78-1.54-.91a32.13,32.13,0,0,1-1.84-3.36Z" style="fill:#263238"></path><path d="M195.55,238.12l.84,1.06,1.2-1.93,1.79-.91,1.7,2.15-.84,1.49L198,243.67s-1.3-.78-1.54-.91a32.13,32.13,0,0,1-1.84-3.36Z" style="fill:#fff;opacity:0.5;isolation:isolate"></path><path d="M195.34,244.28c-.13-.05-2.15-.24-2.15-.24l-1.76-2,.37-1.9.34-1.72,2.19-1.22,1.22,1-1,1.28.05,2.62Z" style="fill:#263238"></path><path d="M195.34,244.28c-.13-.05-2.15-.24-2.15-.24l-1.76-2,.37-1.9.34-1.72,2.19-1.22,1.22,1-1,1.28.05,2.62Z" style="fill:#fff;opacity:0.6000000000000001;isolation:isolate"></path><path d="M192.84,241.31l1.73-1.91,2.28,2.86,2.11-2.77-2.26.27,1.09-1.4,1.53-.62,1.82.77-.37,2.38s-.5,3.28-.92,3.38-2.91,1.19-2.91,1.19l-1.63-.11-1-2.95Z" style="fill:#263238"></path><path d="M192.84,241.31l1.73-1.91,2.28,2.86,2.11-2.77-2.26.27,1.09-1.4,1.53-.62,1.82.77-.37,2.38s-.5,3.28-.92,3.38-2.91,1.19-2.91,1.19l-1.63-.11-1-2.95Z" style="fill:#fff;opacity:0.8;isolation:isolate"></path></g><g id="freepik--Papers--inject-1"><path d="M382.18,241.69c-5.25-7.06-12.34-13.74-19.47-20.4,9.37-8,24.36-13.94,42.08-21.77a64.3,64.3,0,0,1,5.88,33.59C398.34,234,389.25,239.12,382.18,241.69Z" style="fill:#263238"></path><path d="M403.67,230.51a62.57,62.57,0,0,0-7.19-23.67l2.48-1a62.55,62.55,0,0,1,6.55,24.3Z" style="fill:#fff"></path><path d="M399.83,231.51a63.17,63.17,0,0,0-8.52-22.46l2.35-1a62.68,62.68,0,0,1,7.91,23Z" style="fill:#fff"></path><path d="M396.22,232.64a65.69,65.69,0,0,0-9.82-21.4l2.23-1a64.28,64.28,0,0,1,9.23,21.87C397.3,232.28,396.76,232.45,396.22,232.64Z" style="fill:#fff"></path><path d="M382.18,241.69c-5.25-7.06-12.34-13.74-19.47-20.4,9.37-8,24.36-13.94,42.08-21.77a64.3,64.3,0,0,1,5.88,33.59C398.34,234,389.25,239.12,382.18,241.69Z" style="fill:#fff;opacity:0.8;isolation:isolate"></path><path d="M283.28,320.07c9.18,6.91,17.84,16.24,26.48,25.61,10.61-12.18,18.43-31.7,28.81-54.79a84,84,0,0,0-43.84-8C293.43,299,286.7,310.85,283.28,320.07Z" style="fill:#263238"></path><path d="M298.07,292.09a81.5,81.5,0,0,1,30.86,9.59l1.37-3.22a81.58,81.58,0,0,0-31.69-8.77Q298.34,290.9,298.07,292.09Z" style="fill:#fff"></path><path d="M296.74,297.09A82.75,82.75,0,0,1,326,308.42l1.34-3.06a81.8,81.8,0,0,0-30-10.54C297.17,295.59,297,296.34,296.74,297.09Z" style="fill:#fff"></path><path d="M295.23,301.81a85.71,85.71,0,0,1,27.87,13c.45-1,.89-1.93,1.34-2.91a84,84,0,0,0-28.5-12.24C295.71,300.39,295.47,301.1,295.23,301.81Z" style="fill:#fff"></path><path d="M283.28,320.07c9.18,6.91,17.84,16.24,26.48,25.61,10.61-12.18,18.43-31.7,28.81-54.79a84,84,0,0,0-43.84-8C293.43,299,286.7,310.85,283.28,320.07Z" style="fill:#fff;opacity:0.8;isolation:isolate"></path><path d="M399.19,350.9A46.72,46.72,0,0,0,387,342.58c11.14-2,24-7,33.36-18.38a40,40,0,0,1,4.94,22.16C415.77,348.51,406.86,351,399.19,350.9Z" style="fill:#263238"></path><path d="M419.8,345.34a30,30,0,0,0-4.3-13.79c.53-.43,1.05-.87,1.57-1.33a32.4,32.4,0,0,1,4.19,14.66Z" style="fill:#fff"></path><path d="M416.66,346.29A25.79,25.79,0,0,0,412,334.14c.55-.37,1.09-.75,1.63-1.15a27.52,27.52,0,0,1,4.48,12.87Z" style="fill:#fff"></path><path d="M413.56,347.15a22.94,22.94,0,0,0-5.2-10.77c.57-.32,1.13-.65,1.69-1A24,24,0,0,1,415,346.76C414.51,346.9,414,347,413.56,347.15Z" style="fill:#fff"></path><path d="M399.19,350.9A46.72,46.72,0,0,0,387,342.58c11.14-2,24-7,33.36-18.38a40,40,0,0,1,4.94,22.16C415.77,348.51,406.86,351,399.19,350.9Z" style="fill:#fff;opacity:0.8;isolation:isolate"></path><path d="M269.4,395.07c.06-.12,2.5-1,2.5-1l3.7,1.79.62,3.38,1.49,1.94-3.94,4.59-6.38-1.17Z" style="fill:#263238"></path><path d="M269.4,395.07c.06-.12,2.5-1,2.5-1l3.7,1.79.62,3.38,1.49,1.94-3.94,4.59-6.38-1.17Z" style="fill:#fff;opacity:0.8;isolation:isolate"></path><path d="M271,399.82l-1.53,1.87,3.83,1.34,2.28,2.78-3.09,3.81-2.94-.9-7.33-2.58s.87-2.57,1-3,5.15-4.5,5.15-4.5Z" style="fill:#263238"></path><path d="M271,399.82l-1.53,1.87,3.83,1.34,2.28,2.78-3.09,3.81-2.94-.9-7.33-2.58s.87-2.57,1-3,5.15-4.5,5.15-4.5Z" style="fill:#fff;opacity:0.5;isolation:isolate"></path><path d="M260.19,401.82c0-.24-.41-3.84-.41-3.84l2.87-3.87,3.46-.08,3.13-.07,3,3.35L271,399.82l-2.62-1.22-4.56,1.09Z" style="fill:#263238"></path><path d="M260.19,401.82c0-.24-.41-3.84-.41-3.84l2.87-3.87,3.46-.08,3.13-.07,3,3.35L271,399.82l-2.62-1.22-4.56,1.09Z" style="fill:#fff;opacity:0.6000000000000001;isolation:isolate"></path><path d="M264.42,396.31l4,2.29-4.12,5.07L270,406.3l-1.35-3.85,2.87,1.37,1.67,2.43-.64,3.48-4.29.27s-5.94.39-6.27-.31-3.2-4.62-3.2-4.62l-.44-2.89,4.78-2.87Z" style="fill:#263238"></path><path d="M264.42,396.31l4,2.29-4.12,5.07L270,406.3l-1.35-3.85,2.87,1.37,1.67,2.43-.64,3.48-4.29.27s-5.94.39-6.27-.31-3.2-4.62-3.2-4.62l-.44-2.89,4.78-2.87Z" style="fill:#fff;opacity:0.8;isolation:isolate"></path></g></svg>